<svg xmlns="http://www.w3.org/2000/svg" viewBox="0 0 46 27">
  <path d="M8.118 14.444c.134-.099.268-.21.401-.335.063-.057.138-.082.172-.063.483-.465.944-1.004 1.798-2.072.216-.27.41-.532.74-.991a2.032 2.032 0 0 1-1.057-.264 1.703 1.703 0 0 1-.653-2.32 1.456 1.456 0 0 1 1.971-.55 1.229 1.229 0 0 1 .47 1.678 1.07 1.07 0 0 1-1.451.404.331.331 0 0 1-.17-.356.141.141 0 0 1-.032-.07.478.478 0 0 1 .405-.542.473.473 0 0 1 .495.265.259.259 0 0 0 .075-.081.454.454 0 0 0-.174-.621.67.67 0 0 0-.91.254.928.928 0 0 0 .356 1.263c.64.36 1.207.126 1.69-.454C14.137 7.043 15.746 5.9 18.257 5.9c1.437.005 2.74.577 3.67 1.613.487.54.848 1.203 1.078 1.953.232-.752.593-1.415 1.077-1.953.933-1.038 2.237-1.608 3.693-1.613 2.494 0 4.1 1.146 5.99 3.687.486.584 1.05.816 1.692.456a.927.927 0 0 0 .355-1.263.673.673 0 0 0-.911-.253.45.45 0 0 0-.172.62c.018.032.043.06.073.082a.473.473 0 0 1 .495-.266.48.48 0 0 1 .404.55.264.264 0 0 1-.023.052.36.36 0 0 1-.177.367 1.07 1.07 0 0 1-1.45-.405 1.22 1.22 0 0 1-.116-.935c.089-.318.297-.582.584-.742a1.452 1.452 0 0 1 1.971.55c.461.82.168 1.862-.652 2.32a1.984 1.984 0 0 1-.975.267c.262.474.442.718.658.987.85 1.064 1.315 1.607 1.737 2.045.095.008.17.034.234.091.13.121.26.23.389.327v-6.97h2.165v-.96a3.527 3.527 0 1 1 3.788-.007v.966H46V27H0V7.466h2.165V6.5a3.527 3.527 0 1 1 3.788.006v.96h2.165v6.978zm0 .781v4.047c1.247.45 2.51.855 3.788 1.216A400.985 400.985 0 0 0 23 23.141a400.985 400.985 0 0 0 11.094-2.653 56.761 56.761 0 0 0 3.788-1.216v-4.117c-1.005-.6-2.065-1.553-2.98-2.7l-.023-.032c-.534-.589-1.144-.816-1.785-.391a.924.924 0 0 0-.262 1.28c.203.303.62.386.927.184a.452.452 0 0 0 .129-.627.253.253 0 0 0-.117-.093.467.467 0 0 1-.469.291.476.476 0 0 1-.437-.518.168.168 0 0 1 .038-.088.36.36 0 0 1 .156-.315 1.07 1.07 0 0 1 1.477.292 1.229 1.229 0 0 1-.345 1.705 1.456 1.456 0 0 1-2.007-.402 1.7 1.7 0 0 1 .481-2.357c.377-.25.784-.366 1.195-.342a56.084 56.084 0 0 0-.75-1.028.17.17 0 0 1-.03-.036c-1.711-2.278-3.16-3.305-5.332-3.305-1.215.003-2.313.484-3.092 1.353-.877.976-1.291 2.36-1.133 3.795a3.88 3.88 0 0 0 1.45 2.635c.75.6 1.687.895 2.65.845.58-.098 1.032-.359 1.32-.762.354-.496.47-1.196.316-1.921a1.746 1.746 0 0 0-.764-1.108 1.745 1.745 0 0 0-1.327-.245c-.35.074-.648.277-.842.576a1.318 1.318 0 0 0-.185 1 .968.968 0 0 0 .424.618c.224.145.49.194.746.138a.691.691 0 0 0 .313-.163.703.703 0 0 1-.425-.651.714.714 0 0 1 .728-.703c.288.002.544.18.652.437.02.02.037.043.044.075a.347.347 0 0 1 .005.113l-.001.034c.008.036.008.036.01.062a.219.219 0 0 1-.008.044c.015.325-.052.618-.213.864a1.491 1.491 0 0 1-.945.646c-.462.097-.937.009-1.333-.247a1.74 1.74 0 0 1-.76-1.11 2.104 2.104 0 0 1 1.63-2.493 2.531 2.531 0 0 1 1.912.355c.569.366.96.934 1.101 1.596.16.74.081 1.481-.212 2.108-.01.045-.01.045-.023.069-.019.035-.05.086-.09.145-.102.147-.235.316-.384.476-.426.46-.889.766-1.354.818a2.773 2.773 0 0 1-.116.008c-.179.011-.177.011-.277.02a.773.773 0 0 0-.128-.001 4.7 4.7 0 0 1-2.95-1.037A4.642 4.642 0 0 1 23 12.95a4.627 4.627 0 0 1-1.487 2.112 4.708 4.708 0 0 1-2.95 1.037c-.02 0-.14-.008-.217-.011a4.6 4.6 0 0 1-.306-.017c-.465-.05-.928-.356-1.353-.816a4.16 4.16 0 0 1-.382-.477c-.04-.059-.072-.11-.09-.146-.012-.023-.012-.023-.022-.065-.294-.629-.372-1.369-.214-2.113a2.508 2.508 0 0 1 1.102-1.595 2.533 2.533 0 0 1 1.913-.354c.552.116 1.026.44 1.334.91.308.472.413 1.034.295 1.583a1.74 1.74 0 0 1-.76 1.108 1.771 1.771 0 0 1-1.334.248 1.482 1.482 0 0 1-.944-.645 1.418 1.418 0 0 1-.212-.86.162.162 0 0 1-.008-.047c.004-.036.004-.036.01-.053l-.002-.046a.396.396 0 0 1 .002-.091.157.157 0 0 1 .046-.093.72.72 0 0 1 1.382.264.699.699 0 0 1-.425.65.663.663 0 0 0 .314.163.976.976 0 0 0 .747-.138.968.968 0 0 0 .423-.616 1.323 1.323 0 0 0-1.027-1.576 1.763 1.763 0 0 0-2.09 1.352c-.155.725-.038 1.425.315 1.921.287.403.74.665 1.306.764a3.922 3.922 0 0 0 2.664-.847 3.888 3.888 0 0 0 1.45-2.635c.158-1.435-.256-2.818-1.133-3.795-.782-.872-1.88-1.35-3.11-1.354-2.159 0-3.606 1.03-5.32 3.313a60.297 60.297 0 0 0-.773 1.058c.41-.024.816.09 1.193.34a1.7 1.7 0 0 1 .481 2.357 1.45 1.45 0 0 1-2.007.403 1.228 1.228 0 0 1-.344-1.704 1.07 1.07 0 0 1 1.477-.292c.114.075.161.2.147.303.031.04.044.065.047.102a.477.477 0 0 1-.437.516.468.468 0 0 1-.47-.291.26.26 0 0 0-.116.094.452.452 0 0 0 .129.627c.307.203.723.12.926-.185.281-.422.163-.999-.263-1.28-.64-.424-1.251-.197-1.782.386l-.026.036c-1.051 1.318-2.014 2.24-2.981 2.77z"/>
</svg>
