<svg xmlns="http://www.w3.org/2000/svg" viewBox="0 0 27 27">
  <path d="M0 22.936h27.973v4.06H0v-4.06zm4.117-1.557H2.386l-.234-.661-.188-.708-.234-.8-.14-.613-.187-.614-.094-.519-.14-.519-.14-.614-.094-.566-.093-.614-.141-.614-.093-.471-.094-.52-.093-.472-.047-.472-.047-.472-.047-.566-.047-.52-.046-.471-.047-.472-.047-.472v-.567l-.047-.613L0 5.949v-.8l.046-.661v-2.6l.655-.189.515-.142.468-.141.467-.142.421-.094.421-.142.421-.094.375-.095.421-.094.374-.095.514-.141.468-.095.421-.094.421-.094.421-.095.421-.047.328-.047L7.952 0h.655l.374.047.561.094.609.095.514.094.561.094.515.142.515.142.514.094.468.142.421.094.515.142.608.141.608.236.748.236.562.142.561.189.608.141.561.189.609.142.561.188.655.189.7.236.655.189.749.189.7.141.7.142.608.094.515.048h1.45l.561-.048.375-.141.374-.142.28-.047.047.9v3.209l-.047 1.369-.046 1.558-.141 1.605-.187 1.227-.28 1.511-.375 1.793-1.216 4.626H23.9v1.17H4.117V21.38z"/>
</svg>
