<svg xmlns="http://www.w3.org/2000/svg"><path d="M34.708 7.256L27.744.292a.998.998 0 0 0-1.412 0L9.018 17.607a1 1 0 0 0-.274.512L7.02 26.807a.999.999 0 0 0 1.174 1.174l8.688-1.725a.999.999 0 0 0 .512-.274L34.708 8.667a.998.998 0 0 0 0-1.411zM9.67 23.704l.901-4.542 5.266 5.266-4.542.901-1.625-1.625z"/><path d="M25.996 29.874c-9.498-3.82-15.68 2.497-17.527 3.456-2.36 1.227-5.686 2.667-6.459.173-.466-1.505 2.055-3.114 3.725-3.615 1.218-.366.698-2.208-.528-1.84-2.593.779-5.687 2.877-5.144 5.83.403 2.196 3.266 4.197 8.787 1.414 4.013-2.022 6.74-6.212 15.192-4.042 2.777.712 5.021 2.45 5.982 5.095.42 1.153 2.339.657 1.915-.508-1.024-2.817-3.096-4.818-5.943-5.963z"/></svg>
