<svg xmlns="http://www.w3.org/2000/svg" viewBox="0 0 18 35">
  <path class="cls-1" d="M.012 30.076h16.61V35H.012v-4.923zM2.133 9.502v-.879m-.059-.645l-.059-.762-.059-.938-.059-.762-.589-3.81S2.145.127 5.254.006a10.092 10.092 0 0 1 5.419 1.524 4.1 4.1 0 0 0 1.767.352 5.316 5.316 0 0 0 2.179-.293 15.187 15.187 0 0 1 .53 4.806 14.579 14.579 0 0 1-.942 3.986l.825.352-.589 1.524.647.469a9.232 9.232 0 0 0-.412 2.4 23.276 23.276 0 0 0 .471 3.869 3.5 3.5 0 0 1-.294 1.172l-.3.469-.294.469.707 1.172-.648 1.231.707 1.114-.648 1.172.589 1.348-.53 2.814H2.128V29.9l-.589-2.814.647-1.23-.647-1.114.647-1.231-.647-1.055.706-1.114a6.93 6.93 0 0 1-1.413-4.4c.036-2.739 1.3-5.658 1.237-6.741"/>
</svg>
