<svg viewBox="0 0 35 35" xmlns="http://www.w3.org/2000/svg"><path d="M35 18.725c-.85-.652-2.142-1.068-3.588-1.068-2.239 0-4.107.997-4.542 2.323h-.186c-.424-1.335-2.298-2.34-4.547-2.34-1.449 0-2.739.418-3.59 1.072v11.223c0 2.793-2.13 5.065-4.75 5.065-2.619 0-4.75-2.272-4.75-5.065 0-.617.47-1.118 1.048-1.118.579 0 1.048.5 1.048 1.118 0 1.56 1.19 2.83 2.655 2.83 1.463 0 2.654-1.27 2.654-2.83V18.73c-.85-.654-2.141-1.073-3.59-1.073-2.24 0-4.108.997-4.543 2.323h-.186c-.424-1.335-2.298-2.34-4.547-2.34-1.445 0-2.735.415-3.586 1.066C.683 10.75 7.705 4.424 16.452 3.953v-.836C16.452 2.5 16.922 2 17.5 2c.579 0 1.048.5 1.048 1.117v.836C27.3 4.425 34.326 10.759 35 18.725zM2.5 2S1 5.359 1 6.298C1 7.238 1.672 8 2.5 8S4 7.238 4 6.298 2.5 2 2.5 2zM7 0S6 2.24 6 2.866C6 3.492 6.448 4 7 4s1-.508 1-1.134C8 2.239 7 0 7 0z" /></svg>
