<svg width="25" height="26" xmlns="http://www.w3.org/2000/svg"><g fill-rule="nonzero"><path d="M24.913 21.722L21.715 15A11.848 11.848 0 0114 19.859l2.677 5.627c.342.72 1.402.672 1.677-.072l1.372-3.694.283-.13 3.77 1.346c.756.272 1.475-.497 1.134-1.214zM12.5 0C17.738 0 22 4.037 22 9s-4.262 9-9.5 9S3 13.963 3 9s4.262-9 9.5-9zm.286 3.077c-1.344 0-1.344 1.332-1.344 1.902 0 .682-.958 1.525-1.536 1.915a1.762 1.762 0 00-.798-.187h-.483c-.932 0-1.69.695-1.69 1.549v3.98c0 .854.758 1.548 1.69 1.548h.483c.587 0 1.105-.275 1.409-.692.782.349 2.127.754 4.146.754h.68c1.207 0 2.258-.849 2.444-1.976l-.015-.002c.077-.3.152-.751.268-1.44.233-1.38.254-1.617.256-1.704v-.022c0-1.296-1.088-2.35-2.425-2.35h-1.432c.066-.275.111-.6.111-.97 0-1.583-.914-2.305-1.764-2.305zM9.108 8.092c.134 0 .242.1.242.223v4.016c0 .12-.11.223-.242.223h-.483c-.133 0-.241-.1-.241-.223V8.315c0-.123.108-.223.241-.223zM12.9 4.52c.1.124.214.38.214.863 0 .794-.166 1.072-.307 1.28a.637.637 0 00-.025.685c.127.217.368.35.63.35h2.459c.545 0 .99.451.99.986-.016.242-.34 2.146-.451 2.762l-.031.165a.54.54 0 00-.011.054c-.078.47-.527.835-1.025.835h-.68c-2.222 0-3.446-.553-3.868-.791l.004.002V8.256c0-.099-.01-.194-.03-.288.597-.405 2.109-1.576 2.109-2.989 0-.209.01-.357.022-.46zM3.286 15L.088 21.722c-.344.72.382 1.485 1.134 1.213L4.99 21.59l.283.13 1.372 3.694c.275.742 1.334.794 1.677.072L11 19.859A11.847 11.847 0 013.286 15z"/></g></svg>