<svg width="20" height="40" viewBox="0 0 20 40" xmlns="http://www.w3.org/2000/svg"><g fill="#000" fill-rule="nonzero"><path d="M.5 19c.8 0 1.2-.7 1.6-1.4.5-.8 1-1.7 2.2-1.7 1.1 0 1.7.9 2.2 1.7.4.7.8 1.3 1.6 1.3s1.2-.6 1.6-1.3c.5-.8 1-1.7 2.2-1.7 1.1 0 1.7.9 2.2 1.7.4.7.8 1.3 1.6 1.3s1.2-.6 1.6-1.3c.5-.8 1-1.6 2-1.7-.5-2-1.2-4-2.2-5.6a9.6 9.6 0 01-1.3-5.8H4v.3c.2 2-.2 4-1.2 5.7A21 21 0 00.2 19h.3zM3.9 3.7h12l.5-3.7H3.5zM4.2 35.8V40h11.6v-4.2a8.1 8.1 0 01-5.8 2.8c-2.1 0-4-1-5.8-2.8z"/><path d="M17.9 18c-.5.9-1 1.8-2.2 1.8-1.1 0-1.7-1-2.2-1.7-.4-.8-.8-1.4-1.6-1.4s-1.2.6-1.6 1.4c-.5.8-1 1.7-2.2 1.7-1.1 0-1.7-1-2.2-1.7-.4-.8-.8-1.4-1.6-1.4s-1.2.6-1.6 1.4c-.5.8-1 1.7-2.2 1.7H0a26.5 26.5 0 00.2 5.4h.2c.8 0 1.2-.6 1.6-1.3.5-.8 1-1.7 2.2-1.7 1.1 0 1.7.9 2.2 1.7.4.7.8 1.3 1.6 1.3s1.2-.6 1.6-1.3c.5-.8 1-1.7 2.2-1.7 1.1 0 1.7.9 2.2 1.7.4.7.8 1.3 1.6 1.3s1.2-.6 1.6-1.3c.5-.8 1-1.7 2.2-1.7h.4a26.5 26.5 0 00-.4-5.5c-.8 0-1.2.7-1.6 1.4z"/><path d="M17.9 24.4c-.5.8-1 1.7-2.2 1.7-1.1 0-1.7-1-2.2-1.7-.4-.7-.8-1.4-1.6-1.4s-1.2.7-1.6 1.4c-.5.8-1 1.7-2.2 1.7-1.1 0-1.7-1-2.2-1.7-.4-.7-.8-1.4-1.6-1.4s-1.2.7-1.6 1.4c-.5.8-1 1.7-2.2 1.7 1.2 6.7 5 11.6 9.5 11.6 5.2 0 9.4-6.4 9.9-14.6h-.4c-.8 0-1.2.6-1.6 1.3z"/></g></svg>