<svg xmlns="http://www.w3.org/2000/svg"><path d="M34.72 2.378L31.529.56c-1.063-.605-2.249-.623-3.339-.052-1.09.572-1.955 1.665-2.435 3.078l-7.168 21.117c.336.104.665.245.984.427.32.183.623.402.908.65l7.168-21.117c.251-.742.705-1.315 1.277-1.615.572-.3 1.193-.29 1.75.028l3.194 1.818c.522.297 1.137-.025 1.373-.72.235-.694.003-1.499-.52-1.796zM19.477 26.282a4.003 4.003 0 0 0-5.193 2.241 3.973 3.973 0 0 0 .045 3.06 3.973 3.973 0 0 0 2.196 2.132c.478.19.978.285 1.477.285.538 0 1.075-.11 1.583-.33a3.973 3.973 0 0 0 2.133-2.195 4.003 4.003 0 0 0-2.241-5.193zM19.912 16.62a1.115 1.115 0 0 0-.59-.616L7.797 11.082c-.552-.236-1.177.054-1.396.647L2.175 23.173l-.703-.3c-.552-.236-1.177.054-1.396.647-.219.593.05 1.265.602 1.5l1.59.68c.035.02.072.039.11.055L12.318 30c.073-.379.175-.753.31-1.12.462-1.251 1.257-2.307 2.299-3.052a5.908 5.908 0 0 1 2.292-1l2.705-7.324a1.235 1.235 0 0 0-.012-.884zm-4.996 2.722c-.185.409-.632.658-1.104.658-.146 0-.294-.024-.438-.074l-2.624-.914c-.61-.213-.908-.819-.666-1.354.242-.535.933-.797 1.542-.584l2.624.914c.61.213.908.819.666 1.354z"/></svg>
