<svg width="35" height="50" viewBox="0 0 36 50" fill="#19304b"
                                             xmlns="http://www.w3.org/2000/svg">
                                            <path d="M33 15C33 6.725 26.275 0 18 0C9.725 0 3 6.725 3 15C3 26.25 18 42.5 18 42.5C18 42.5 33 26.25 33 15ZM13 15C13 12.25 15.25 10 18 10C20.75 10 23 12.25 23 15C23 17.75 20.775 20 18 20C15.25 20 13 17.75 13 15ZM0.5 45V50H35.5V45H0.5Z"
                                                  fill="#19304B"/>
                                        </svg>