<svg width="50" height="50" viewBox="0 0 65 65" fill="#19304b"
                                             xmlns="http://www.w3.org/2000/svg">
                                            <path d="M14.3615 17.6103L9.73114 15.5802C5.80571 22.0239 4.68997 30.0277 7.27322 37.6072L11.9309 35.7889C9.87095 29.4811 10.9289 22.8418 14.3615 17.6103ZM49.0524 21.297L53.71 19.4787C50.4514 12.1628 44.2081 7.03198 36.9784 4.9431L34.9716 9.56432C40.9941 11.1046 46.2938 15.262 49.0524 21.297ZM44.9192 24.2524C42.1281 17.1029 35.9723 12.6089 28.6936 13.6254L28.0754 12.0418C27.3208 10.1089 25.1513 9.15772 23.2184 9.91231C21.2855 10.6669 20.3343 12.8364 21.0889 14.7693L21.7071 16.3529C15.6416 20.5458 14.1731 27.9895 16.9732 35.1623L21.519 46.8064L18.6797 53.2824L19.5888 55.6112L56.8501 41.0648L55.9409 38.7359L49.4649 35.8966L44.9192 24.2524ZM40.9469 55.3245C41.2729 55.1972 41.5666 55.0557 41.8421 54.8677C43.2285 53.9507 44.0628 52.4441 44.1228 50.8105C44.1375 50.1606 44.0175 49.5097 43.763 48.8576L34.4476 52.4942C35.471 55.0468 38.3619 56.3336 40.9469 55.3245Z"
                                                  fill="#19304B"/>
                                        </svg>