<svg width="62" height="42" viewBox="0 0 62 42" fill="#19304b"
                                             xmlns="http://www.w3.org/2000/svg">
                                            <path fill-rule="evenodd" clip-rule="evenodd"
                                                  d="M16 17H18.5293L18.7365 16.2747C20.2681 10.9141 25.1618 7 31 7C38.0477 7 43.75 12.7023 43.75 19.75V22H48.5C52.0977 22 55 24.9023 55 28.5C55 32.0977 52.0977 35 48.5 35H16C11.0273 35 7 30.9727 7 26C7 21.0273 11.0273 17 16 17ZM62 28.5C62 21.6219 56.8509 16.0067 50.1976 15.1755C48.1334 6.45865 40.3282 0 31 0C23.5763 0 17.1073 4.10892 13.7395 10.1709C5.9672 11.2606 0 17.9415 0 26C0 34.8273 7.17272 42 16 42H48.5C55.9523 42 62 35.9523 62 28.5Z"
                                                  fill="#19304B"/>
                                        </svg>