<?xml version="1.0" encoding="UTF-8"?>
<svg width="105px" height="104px" viewBox="0 0 105 104" version="1.1" xmlns="http://www.w3.org/2000/svg" xmlns:xlink="http://www.w3.org/1999/xlink">
    <!-- Generator: Sketch 53.2 (72643) - https://sketchapp.com -->
    <title>certificate (1)</title>
    <desc>Created with Sketch.</desc>
    <g id="Page-1" stroke="none" stroke-width="1" fill="none" fill-rule="evenodd">
        <g id="Desktop-Copy" transform="translate(-1003.000000, -689.000000)" fill="#C31E26" fill-rule="nonzero">
            <g id="certificate-(1)" transform="translate(1003.000000, 689.000000)">
                <path d="M17.9996095,58 C17.4739307,58 16.9576254,58.213979 16.585823,58.5864897 C16.2140206,58.9582195 16,59.4720811 16,60.0000001 C16,60.5263569 16.2132396,61.0417805 16.585823,61.4135103 C16.9584064,61.786021 17.4739307,62 17.9996095,62 C18.5284124,62 19.0423744,61.786021 19.4141768,61.4135103 C19.7859792,61.0417805 20,60.5263569 20,60.0000001 C20,59.4720811 19.7859792,58.9582195 19.4141768,58.5864897 C19.0423744,58.213979 18.5260691,58 17.9996095,58 Z" id="Path"></path>
                <path d="M20.9996094,19 C22.1040812,19 23,18.0896504 23,16.9664095 L23,14.034385 C23,12.9103496 22.1040812,12 20.9996094,12 C19.8951377,12 19,12.9103496 19,14.034385 L19,16.9664095 C19,18.0896504 19.8951377,19 20.9996094,19 Z" id="Path"></path>
                <path d="M20.9996094,32 C22.1040812,32 23,31.0896506 23,29.9664094 L23,27.0335906 C23,25.9103496 22.1040812,25 20.9996094,25 C19.8951377,25 19,25.9103496 19,27.0335906 L19,29.9664094 C19,31.0896506 19.8951377,32 20.9996094,32 Z" id="Path"></path>
                <path d="M13.0335905,23 L15.965615,23 C17.0896504,23 18,22.1048623 18,21.0003906 C18,19.8951377 17.0896504,19 15.965615,19 L13.0335905,19 C11.9103496,19 11,19.8951377 11,21.0003906 C11,22.1048623 11.9103496,23 13.0335905,23 Z" id="Path"></path>
                <path d="M27.0335906,23 L29.9656151,23 C31.0888563,23 32,22.1048623 32,21.0003906 C32,19.8951377 31.0888563,19 29.9656151,19 L27.0335906,19 C25.9103496,19 25,19.8951377 25,21.0003906 C25,22.1048623 25.9103496,23 27.0335906,23 Z" id="Path"></path>
                <path d="M92,81 C90.8957437,81 90,81.9110405 90,83.0341542 L90,85.965846 C90,87.0897537 90.8957437,88 92,88 C93.1042561,88 94,87.0897537 94,85.965846 L94,83.0341542 C94,81.9110405 93.1042561,81 92,81 L92,81 Z" id="Path"></path>
                <path d="M92,94 C90.8957437,94 90,94.9110406 90,96.0341543 L90,98.9658459 C90,100.089754 90.8957437,101 92,101 C93.1042561,101 94,100.089754 94,98.9658459 L94,96.0341543 C94,94.9110406 93.1042561,94 92,94 L92,94 Z" id="Path"></path>
                <path d="M86.9658459,89 L84.0341541,89 C82.9110406,89 82,89.8957439 82,91.0000001 C82,92.1042561 82.9110406,93 84.0341541,93 L86.9658459,93 C88.0889594,93 89,92.1042561 89,91.0000001 C89,89.8957439 88.0889594,89 86.9658459,89 L86.9658459,89 Z" id="Path"></path>
                <path d="M99.9658457,89 L97.0341541,89 C95.9110404,89 95,89.8957439 95,91.0000001 C95,92.1042561 95.9110404,93 97.0341541,93 L99.9658457,93 C101.088959,93 102,92.1042561 102,91.0000001 C102,89.8957439 101.088959,89 99.9658457,89 L99.9658457,89 Z" id="Path"></path>
                <path d="M63.0004116,60 C58.5891159,60 55,63.5889312 55,68 C55,72.4110688 58.5891159,76 63.0004116,76 C67.4117073,76 71,72.4110688 71,68 C71,63.5889312 67.4117073,60 63.0004116,60 L63.0004116,60 Z M63.0004116,71.7847959 C60.9132762,71.7847959 59.2154211,70.0870281 59.2154211,68 C59.2154211,65.9129719 60.9132762,64.2152041 63.0004116,64.2152041 C65.087547,64.2152041 66.7854019,65.9129719 66.7854019,68 C66.7854019,70.0870281 65.087547,71.7847959 63.0004116,71.7847959 L63.0004116,71.7847959 Z" id="Shape"></path>
                <path d="M96.5952007,73.7842413 C96.9116283,73.0233129 96.7329868,72.1481262 96.1433902,71.568107 L91.9056645,67.4056145 L96.1433902,63.2439157 C96.7329868,62.6638962 96.9116283,61.7887096 96.5952007,61.0277812 C96.2787731,60.2660593 95.5297612,59.7693533 94.6982376,59.7693533 L79.5185274,59.7693533 C78.7735209,58.7894299 77.7305115,58.0959458 76.5385009,57.7904634 L100.144797,34.4087778 C100.156012,34.3976693 100.167227,34.3881477 100.178442,34.3770394 C100.184851,34.3714851 100.189657,34.364344 100.195265,34.3587898 L100.362691,34.1929566 C100.389127,34.1667723 100.411557,34.1390011 100.436391,34.112817 C107.295258,26.9986527 106.324346,14.8087233 98.1869514,6.74796083 C90.1296649,-1.23186858 77.9876589,-2.25305194 70.7771164,4.31917914 C70.7138308,4.36837357 70.6529486,4.41994864 70.5944696,4.47787118 L48.7986199,26.0655435 L48.7986199,26.0663369 C48.7978189,26.0671303 48.7978189,26.0671303 48.7970177,26.0679239 L36.7831851,37.9666532 C36.7831851,37.9674469 36.7831851,37.9674469 36.7823841,37.9674469 C36.781583,37.9682403 36.7807818,37.9690337 36.7799808,37.9698273 L22.401353,52.2124382 C21.6002706,53.0058984 21.6002706,54.2920974 22.401353,55.086351 C22.8018942,55.4830813 23.3266032,55.6814463 23.8513122,55.6814463 C24.3768223,55.6814463 24.9015311,55.4822877 25.3020723,55.086351 L32.0047287,48.4466759 C31.9238194,49.453577 31.9230182,50.4850753 32.007933,51.5348233 C32.4220926,56.6915211 34.8253397,61.6847664 38.7738748,65.5957318 C40.7797851,67.5833496 43.0508537,69.1678896 45.5366124,70.3184071 C44.5304529,71.8116991 44.3237736,73.7001344 45.0479521,75.4314647 C45.8386204,77.3230739 47.5473291,78.5711868 49.5420244,78.7822471 L31.9646747,96.1931448 C31.9382388,96.219329 31.9142064,96.2478937 31.8893728,96.2748713 C31.8621361,96.2994686 31.8324959,96.3232723 31.8060603,96.3494566 C26.2641722,101.838614 16.3539821,100.953906 9.71541228,94.3777078 C3.0752404,87.8015095 2.18203348,77.9856132 7.72392135,72.4964553 L13.6943886,66.5827963 C14.495471,65.7893361 14.495471,64.5031371 13.6943886,63.7096769 C12.8933062,62.9162167 11.5947515,62.9162167 10.792868,63.7096769 L4.82240104,69.6233359 C-2.31844749,76.6962402 -1.42524057,89.0900889 6.81389176,97.2508274 C11.3191791,101.713248 17.1013919,104 22.5856019,104 C27.1301424,104 31.4712079,102.428949 34.7075808,99.2233695 C34.7340165,99.1971853 34.7572478,99.1686208 34.7820814,99.141643 C34.8101193,99.1162523 34.8389581,99.093242 34.866195,99.0662644 L52.1143,81.9814787 C52.4235177,83.1613541 53.1228626,84.1952328 54.1121994,84.9331507 L54.1121994,99.9692221 C54.1121994,100.792834 54.613677,101.534719 55.3827161,101.848136 C56.150153,102.161553 57.0353492,101.984611 57.6201392,101.399831 L61.8218163,97.2032196 L66.0234934,101.399831 C66.4168249,101.792594 66.9439372,102.001274 67.4806623,102.001274 C67.7434173,102.001274 68.0085756,101.951286 68.2617177,101.848136 C69.0299557,101.534719 69.5322344,100.792834 69.5322344,99.9692221 L69.5322344,85.7813599 C69.6636118,85.7377195 69.7941882,85.6909053 69.9247647,85.63695 C72.1157251,84.7379596 73.4535326,82.6408442 73.3325693,80.2945824 C73.3045314,79.7470947 73.5817058,79.3868639 73.7499332,79.2202371 C73.9173593,79.054404 74.2834539,78.7790735 74.8345986,78.8076378 C77.1993938,78.9274504 79.32066,77.6015783 80.2282865,75.4314647 C80.2819589,75.3021307 80.3300238,75.1727966 80.3732824,75.0426691 L94.6982376,75.0426691 C95.5297612,75.0426691 96.2787731,74.5459631 96.5952007,73.7842413 Z M55.3522749,50.7913509 C54.9653523,50.9500429 54.6072684,51.1476147 54.2764212,51.3761312 C54.0777528,51.1936353 53.8814876,51.0095525 53.6908301,50.8207089 C47.0514593,44.2445105 46.1582524,34.4294077 51.6993392,28.9402497 L65.5348332,15.2356048 C65.0509795,21.1087975 67.3492848,27.5151954 72.2847533,32.4037038 C76.7900407,36.8661241 82.5714525,39.1528763 88.0556624,39.1528763 C88.5803714,39.1528763 89.1010749,39.129866 89.6185742,39.0878127 L73.3077357,55.2434562 C73.0946477,53.2685338 71.8345451,51.5752896 69.9247647,50.7913509 C67.7330033,49.8923605 65.2897021,50.4382611 63.7003546,52.1822868 C63.3294534,52.5885384 62.8760407,52.6496348 62.6381193,52.6496348 C62.4009989,52.6496348 61.9475862,52.5885384 61.5766852,52.1822868 C59.9865365,50.4382611 57.5432353,49.8923605 55.3522749,50.7913509 L55.3522749,50.7913509 Z M85.7421365,16.0980961 C87.7913053,16.0980961 90.32593,17.0891279 92.6330473,18.8791741 L84.5325021,26.9034375 C81.6678315,23.2820851 80.8290982,19.0942019 82.7893469,17.1533983 C83.5119231,16.4369037 84.5437172,16.0980961 85.7421365,16.0980961 Z M77.8098187,22.0284179 C78.3449418,25.1237062 80.1145327,28.447511 82.994424,31.3000006 C84.647858,32.9384959 86.4591052,34.2096192 88.2927828,35.0990881 C83.802716,35.169706 78.9641784,33.2741296 75.1854728,29.5305842 C74.3371265,28.6903099 73.5841091,27.7968736 72.9248182,26.8669382 L77.8098187,22.0284179 Z M82.4192467,4.04781584 C86.8404205,4.04781584 91.5740163,5.9457727 95.2854309,9.62187386 C101.924001,16.1972788 102.818009,26.0115882 97.2785239,31.5007459 L97.2753198,31.5039198 C97.2464806,31.5324843 97.2160396,31.5578751 97.1880016,31.5856462 C95.1909033,33.4185394 91.0348879,32.5719173 87.4332214,29.7765569 L97.0726458,20.2296435 C97.4571653,19.8487826 97.6734577,19.33224 97.6734577,18.7934806 C97.6734577,18.2539277 97.4571653,17.737385 97.0726458,17.3565241 C91.4162031,11.7539015 83.9228783,10.3875629 79.9575206,14.215215 C79.8413637,14.2905938 79.7308142,14.3786677 79.6282757,14.4802306 L70.870843,23.154338 C68.5749409,17.6096378 69.2646728,11.5436344 73.1923798,7.65091866 L73.1963852,7.64774482 C75.6396866,5.22769104 78.9321351,4.04781584 82.4192467,4.04781584 L82.4192467,4.04781584 Z M36.0974586,51.2118849 C35.7698159,47.139847 37.0435368,43.457398 39.6823023,40.8421531 L44.0209645,36.5455661 C43.9400553,37.5516737 43.939254,38.583172 44.0233678,39.6329199 C44.4383284,44.7896177 46.8407746,49.7836565 50.7893096,53.6938285 C51.1874475,54.0889716 51.6032093,54.4690391 52.0277831,54.8364112 C51.9508792,55.2553582 51.9212392,55.6901744 51.9436693,56.1337185 C51.9717072,56.6812062 51.6945328,57.0422306 51.5263054,57.2080637 C51.3588792,57.3746905 50.9919836,57.6468472 50.442441,57.6214565 C48.0744414,57.5008505 45.9555786,58.8267226 45.0479521,60.9976298 C44.4207047,62.4980631 44.4912,64.116722 45.1753242,65.4941689 C43.927238,64.7141975 42.7552544,63.7914032 41.6745943,62.7218188 C38.4157911,59.4940226 36.4347142,55.4061155 36.0974586,51.2118849 L36.0974586,51.2118849 Z M63.2789852,92.886796 C62.8936646,92.5019679 62.3689556,92.2861467 61.8226175,92.2861467 C61.2754782,92.2861467 60.7507692,92.5027615 60.3654486,92.886796 L58.2145424,95.0354865 L58.2145424,86.0154307 C59.4770483,85.8488039 60.6666556,85.2449808 61.5766852,84.2468077 C61.9475862,83.8397627 62.4009989,83.7794597 62.6381193,83.7794597 C62.8760407,83.7794597 63.3294534,83.8397627 63.7003546,84.2468077 C64.2026331,84.7982626 64.7906277,85.2291116 65.4298914,85.5330069 L65.4298914,95.0346929 L63.2789852,92.886796 Z M76.4383657,73.8762827 C76.3222086,74.1539937 75.9593183,74.7943161 75.0436813,74.7490889 C73.4815705,74.6705363 71.9547076,75.2521426 70.8492137,76.3471177 C69.7437202,77.4412994 69.1557256,78.9560149 69.2358339,80.5016755 C69.2822967,81.4030463 68.6350222,81.768038 68.3546432,81.8830899 C68.0742643,81.9981415 67.3564945,82.1933326 66.7452688,81.5236522 C65.698254,80.3747218 64.2018321,79.7153563 62.6389203,79.7153563 L62.6381193,79.7153563 C61.0760085,79.7153563 59.5787856,80.3747218 58.5317709,81.5236522 C57.9213462,82.1933326 57.2027753,81.9981415 56.9223964,81.8830899 C56.6420177,81.768038 55.9947431,81.4030463 56.0412058,80.5016755 C56.120513,78.9560149 55.5325184,77.4412994 54.4278259,76.3471177 C53.3223322,75.2521426 51.7914637,74.6697429 50.2333585,74.7490889 C49.3185223,74.7951095 48.954831,74.1539937 48.8386741,73.8762827 C48.722517,73.5985715 48.5254509,72.8876312 49.2015644,72.282221 C50.3615317,71.2451686 51.027231,69.7629849 51.027231,68.214944 C51.027231,66.666903 50.3615317,65.1839259 49.2015644,64.1468733 C48.5254509,63.5414631 48.722517,62.8305228 48.8386741,62.5528118 C48.954831,62.2751008 49.314517,61.633985 50.2333585,61.6800056 C51.7970714,61.7593516 53.3231333,61.1761583 54.4278259,60.0819766 C55.5333196,58.9870017 56.120513,57.4730794 56.0412058,55.9266254 C55.9947431,55.0260482 56.6420177,54.6610563 56.9223964,54.5460046 C57.2027753,54.430953 57.9213462,54.2357616 58.5317709,54.9054423 C59.5787856,56.0543727 61.0760085,56.7129446 62.6389203,56.7129446 C64.2010311,56.7129446 65.698254,56.0543727 66.7452688,54.9054423 C67.3564945,54.2357616 68.0742643,54.430953 68.3546432,54.5460046 C68.6350222,54.6610563 69.2822967,55.0260482 69.2358339,55.927419 C69.1557256,57.4730794 69.7445212,58.9877951 70.8492137,60.0819766 C71.9547076,61.1769519 73.4855759,61.760145 75.0436813,61.6800056 C75.956915,61.6316045 76.3222086,62.2751008 76.4383657,62.5528118 C76.5545226,62.8305228 76.7515887,63.5414631 76.0754754,64.1460799 C74.9155081,65.1839259 74.2498086,66.6661096 74.2498086,68.2141505 C74.2498086,69.7621913 74.9155081,71.2451686 76.0754754,72.282221 C76.7515887,72.8868377 76.5545226,73.5985715 76.4383657,73.8762827 L76.4383657,73.8762827 Z M87.5485773,68.8489187 L89.7171074,70.978566 L80.1233447,70.978566 C79.8165301,70.3469716 79.3815423,69.7637783 78.8247902,69.2662787 C78.4138347,68.8989066 78.3529525,68.4498082 78.3529525,68.2141505 C78.3529525,67.9792863 78.4138347,67.5301877 78.8247902,67.1628158 C79.8325517,66.261445 80.4413743,65.0831564 80.6104028,63.8334565 L89.7171074,63.8334565 L87.5485773,65.9631039 C87.1600524,66.3447583 86.9413567,66.8644748 86.9413567,67.4064079 C86.9413567,67.9483413 87.1600524,68.4672642 87.5485773,68.8489187 Z" id="Shape"></path>
            </g>
        </g>
    </g>
</svg>