<?xml version="1.0" encoding="iso-8859-1"?>
<!-- Generator: Adobe Illustrator 19.0.0, SVG Export Plug-In . SVG Version: 6.00 Build 0)  -->
<svg version="1.1" id="Capa_1" xmlns="http://www.w3.org/2000/svg" xmlns:xlink="http://www.w3.org/1999/xlink" x="0px" y="0px"
	 viewBox="0 0 512 512" style="enable-background:new 0 0 512 512;" xml:space="preserve">
<path style="fill:#EF3C3C;" d="M497.25,249.5c7.738-12.576,5.768-28.828-4.751-39.19l-19.96-19.663
	c-6.606-6.508-10.031-15.581-9.372-24.83l2-28.084c1.053-14.782-8.278-28.319-22.467-32.598l-26.43-7.967
	c-8.931-2.692-16.223-9.182-19.932-17.74l-11.064-25.522c-5.925-13.667-20.567-21.365-35.184-18.496l-26.818,5.263
	c-6.573,1.29-13.308,0.443-19.281-2.289c-5.973,2.731-12.708,3.578-19.281,2.289l-26.82-5.263
	c-14.616-2.868-29.258,4.828-35.183,18.493l-11.069,25.528c-3.71,8.557-11.001,15.045-19.93,17.737l-26.427,7.967
	c-14.188,4.278-23.518,17.815-22.466,32.597l2,28.085c0.659,9.249-2.766,18.323-9.372,24.83l-19.96,19.663
	c-10.519,10.362-12.49,26.615-4.751,39.19l14.759,23.985c4.852,7.885,6.014,17.499,3.179,26.313l-8.635,26.855
	c-4.526,14.074,1.281,29.409,13.993,36.957l23.921,14.202c7.994,4.746,13.501,12.762,15.064,21.928l4.708,27.616
	c2.497,14.646,14.832,25.592,29.671,26.33l27.399,1.362c9.341,0.464,18,5.031,23.66,12.477l16.706,21.98
	c0.27,0.356,0.548,0.703,0.831,1.045l18.188,8.493c3.172,1.482,6.486,2.39,9.817,2.769c3.328-0.38,6.64-1.288,9.809-2.768
	l18.186-8.492c0.284-0.343,0.563-0.692,0.834-1.05l16.7-21.975c5.66-7.448,14.32-12.015,23.662-12.48l27.405-1.362
	c14.839-0.738,27.175-11.684,29.671-26.33l4.708-27.616c1.563-9.165,7.07-17.182,15.064-21.928l23.921-14.202
	c12.712-7.548,18.518-22.881,13.993-36.957l-8.635-26.855c-2.834-8.814-1.673-18.427,3.179-26.313L497.25,249.5z"/>
<path style="fill:#FFFFFF;" d="M147.624,255.991c0-87.135,61.928-159.8,144.171-176.399c-11.569-2.335-23.537-3.565-35.794-3.565
	c-99.391,0-179.964,80.573-179.964,179.965S156.609,435.955,256,435.955c12.257,0,24.225-1.231,35.794-3.565
	C209.552,415.791,147.624,343.125,147.624,255.991z"/>
<path style="fill:#FFC66C;" d="M435.965,255.991c0-87.135-61.928-159.8-144.171-176.399
	c-82.243,16.599-144.171,89.264-144.171,176.399s61.928,159.8,144.171,176.399C374.037,415.791,435.965,343.125,435.965,255.991z"/>
<path d="M204.554,511.97c-12.757,0-25.282-5.821-33.336-16.418l-16.706-21.98c-3.883-5.11-9.787-8.222-16.196-8.54l-27.4-1.362
	c-19.67-0.978-35.721-15.22-39.031-34.635l-4.708-27.617c-1.071-6.285-4.83-11.756-10.312-15.011l-23.921-14.202
	c-16.83-9.992-24.398-29.982-18.407-48.614l8.635-26.854c1.943-6.042,1.15-12.608-2.177-18.013L6.236,254.74
	c-10.24-16.641-7.669-37.84,6.249-51.552l19.961-19.663c4.528-4.461,6.868-10.657,6.416-16.998l-2-28.085
	c-1.395-19.58,10.758-37.213,29.552-42.879l26.426-7.967c6.126-1.847,11.099-6.273,13.643-12.143l11.069-25.529
	c7.736-17.841,27.204-28.072,46.282-24.327l26.82,5.264c6.311,1.237,12.802-0.368,17.808-4.409L229.81,9.216
	c15.176-12.253,37.206-12.253,52.382,0l21.348,17.236c5.005,4.041,11.498,5.648,17.809,4.409l26.817-5.263
	c19.079-3.744,38.549,6.488,46.283,24.331l11.063,25.522c2.545,5.871,7.518,10.297,13.644,12.145l26.431,7.968
	c18.794,5.666,30.948,23.298,29.553,42.88l-2,28.083c-0.452,6.341,1.888,12.537,6.416,16.998l19.96,19.663
	c13.919,13.712,16.49,34.911,6.25,51.553l-14.759,23.985c-3.326,5.405-4.119,11.971-2.177,18.013l8.635,26.855
	c5.991,18.631-1.578,38.622-18.407,48.614l-23.921,14.202c-5.482,3.254-9.241,8.726-10.312,15.01l-4.707,27.616
	c-3.31,19.416-19.36,33.658-39.031,34.636l-27.404,1.362c-6.411,0.318-12.315,3.431-16.199,8.542l-16.7,21.975
	c-11.795,15.521-33.174,20.798-50.837,12.552l-24.766-11.566c-5.834-2.724-12.527-2.724-18.361,0l0,0l-24.767,11.566
	C216.452,510.715,210.476,511.97,204.554,511.97z M155.867,44.818c-8.5,0-16.5,5.06-19.969,13.06l-11.069,25.528
	c-4.89,11.279-14.446,19.784-26.217,23.332l-26.426,7.967c-9.781,2.948-16.105,12.125-15.379,22.314l2,28.085
	c0.868,12.185-3.625,24.089-12.329,32.663l-19.961,19.663c-7.244,7.136-8.581,18.167-3.252,26.828l14.759,23.985
	c6.392,10.388,7.915,23.003,4.183,34.613l-8.635,26.855c-3.118,9.696,0.821,20.1,9.579,25.299l23.921,14.202
	c10.535,6.255,17.757,16.768,19.816,28.844l4.707,27.616c1.723,10.103,10.075,17.516,20.311,18.023l27.4,1.362
	c12.317,0.612,23.661,6.594,31.124,16.413l16.706,21.98c6.138,8.075,17.264,10.82,26.455,6.53l24.767-11.566l0,0
	c11.211-5.235,24.071-5.235,35.282,0l24.766,11.566c9.191,4.29,20.318,1.545,26.456-6.532l16.7-21.975
	c7.463-9.821,18.808-15.804,31.127-16.416l27.404-1.362c10.237-0.508,18.589-7.92,20.312-18.024l4.707-27.616
	c2.059-12.077,9.281-22.59,19.816-28.844l23.921-14.202c8.757-5.2,12.696-15.603,9.579-25.299l-8.635-26.855
	c-3.733-11.61-2.209-24.225,4.182-34.613l14.76-23.985c5.329-8.66,3.991-19.692-3.252-26.828l-19.96-19.663
	c-8.703-8.573-13.196-20.478-12.329-32.664l2-28.084c0.726-10.19-5.599-19.366-15.38-22.315l-26.431-7.968
	c-11.773-3.549-21.329-12.056-26.22-23.336L376.1,57.878c-4.025-9.286-14.154-14.612-24.086-12.662l-26.817,5.263
	c-12.13,2.38-24.603-0.708-34.221-8.473l-21.348-17.235c-7.897-6.377-19.361-6.377-27.26,0L221.022,42.01
	c-9.617,7.764-22.091,10.852-34.22,8.473l-26.82-5.264C158.61,44.949,157.232,44.818,155.867,44.818z"/>
<path d="M128.747,138.735c-2.575,0-5.15-0.989-7.106-2.963c-3.885-3.924-3.853-10.255,0.071-14.139l0.146-0.146
	c3.925-3.885,10.255-3.853,14.139,0.071c3.885,3.924,3.853,10.255-0.071,14.139l-0.146,0.146
	C133.831,137.771,131.288,138.735,128.747,138.735z"/>
<path d="M421.758,336.186c-1.299,0-2.619-0.254-3.891-0.792c-5.085-2.152-7.464-8.018-5.312-13.103
	c27.11-64.08,12.833-137.28-36.369-186.483c-55.029-55.029-140.12-65.735-206.927-26.031c-4.747,2.819-10.881,1.26-13.703-3.487
	c-2.82-4.747-1.26-10.882,3.487-13.703c74.676-44.378,169.782-32.419,231.282,29.081c27.268,27.269,45.395,61.648,52.422,99.422
	c6.86,36.878,2.788,74.566-11.776,108.991C429.357,333.894,425.654,336.186,421.758,336.186z"/>
<path d="M383.108,393.389c-2.576,0-5.15-0.989-7.106-2.963c-3.885-3.924-3.853-10.255,0.071-14.139l0.146-0.146
	c3.924-3.885,10.255-3.852,14.139,0.071c3.885,3.924,3.853,10.255-0.071,14.139l-0.146,0.146
	C388.193,392.425,385.65,393.389,383.108,393.389z"/>
<path d="M256.087,446.045c-49.115,0-97.738-19.057-134.411-55.73c-27.268-27.269-45.395-61.648-52.422-99.422
	c-6.86-36.878-2.788-74.566,11.776-108.992c2.152-5.086,8.019-7.463,13.103-5.313c5.085,2.152,7.464,8.018,5.312,13.103
	c-27.11,64.08-12.833,137.28,36.369,186.483c32.815,32.815,76.327,49.868,120.27,49.87c29.747,0.001,59.688-7.811,86.657-23.839
	c4.747-2.819,10.882-1.26,13.703,3.487c2.82,4.747,1.26,10.882-3.487,13.703C322.813,437.311,289.337,446.045,256.087,446.045z"/>
<g>
	<circle style="fill:#FFC66C;" cx="316.238" cy="322.425" r="31.994"/>
	<circle style="fill:#FFC66C;" cx="195.771" cy="189.561" r="31.994"/>
</g>
<path d="M199.707,357.043c-1.666,0-3.352-0.417-4.906-1.294c-4.809-2.714-6.506-8.812-3.791-13.621l92.689-164.187
	c2.714-4.809,8.813-6.507,13.621-3.791c4.809,2.714,6.506,8.812,3.791,13.621l-92.689,164.187
	C206.585,355.213,203.196,357.043,199.707,357.043z"/>
<path d="M316.234,364.414c-23.154,0-41.992-18.837-41.992-41.992s18.837-41.992,41.992-41.992s41.992,18.837,41.992,41.992
	S339.388,364.414,316.234,364.414z M316.234,300.427c-12.129,0-21.996,9.867-21.996,21.996s9.867,21.996,21.996,21.996
	s21.996-9.867,21.996-21.996S328.362,300.427,316.234,300.427z"/>
<path d="M195.766,231.55c-23.154,0-41.992-18.837-41.992-41.992s18.837-41.992,41.992-41.992s41.992,18.837,41.992,41.992
	S218.921,231.55,195.766,231.55z M195.766,167.563c-12.129,0-21.996,9.867-21.996,21.996c0,12.129,9.867,21.996,21.996,21.996
	c12.129,0,21.996-9.867,21.996-21.996C217.762,177.43,207.895,167.563,195.766,167.563z"/>
<g>
</g>
<g>
</g>
<g>
</g>
<g>
</g>
<g>
</g>
<g>
</g>
<g>
</g>
<g>
</g>
<g>
</g>
<g>
</g>
<g>
</g>
<g>
</g>
<g>
</g>
<g>
</g>
<g>
</g>
</svg>
