<?xml version="1.0" encoding="UTF-8"?>
<svg width="104px" height="104px" viewBox="0 0 104 104" version="1.1" xmlns="http://www.w3.org/2000/svg" xmlns:xlink="http://www.w3.org/1999/xlink">
    <!-- Generator: Sketch 53.2 (72643) - https://sketchapp.com -->
    <title>distance</title>
    <desc>Created with Sketch.</desc>
    <g id="Page-1" stroke="none" stroke-width="1" fill="none" fill-rule="evenodd">
        <g id="Desktop-Copy" transform="translate(-1004.000000, -256.000000)" fill="#C31E26" fill-rule="nonzero">
            <g id="distance" transform="translate(1004.000000, 256.000000)">
                <path d="M86.5,0 C76.8506264,0 69,7.77552439 69,17.3325886 C69,25.6226085 81.4009176,42.4010937 84.3064758,46.2198977 C84.3056555,47.4534276 84.3064758,48.6646147 84.2763292,49.7762744 C84.2443369,50.9716183 85.1971336,51.9683137 86.4060739,52 C86.4253513,52 86.4446287,52 86.4659569,52 C87.6451607,52 88.6192856,51.0668802 88.6512779,49.8906293 C88.6814245,48.7499238 88.6806042,47.5048162 88.6814245,46.236147 C91.5677053,42.4435452 104,25.6323581 104,17.3325886 C104,7.77552439 96.1493736,0 86.5,0 Z M86.5,41.8717706 C81.6913093,35.3192141 73.3749487,22.8486387 73.3749487,17.3325886 C73.3749487,10.1641811 79.2623545,4.33309636 86.5,4.33309636 C93.7376455,4.33309636 99.6250513,10.1641811 99.6250513,17.3325886 C99.6250513,22.8486387 91.3086907,35.319011 86.5,41.8717706 Z" id="Shape"></path>
                <path d="M86.5,13 C84.0193362,13 82,15.0193362 82,17.5 C82,19.9806638 84.0193362,22 86.5,22 C88.9806638,22 91,19.9808747 91,17.5 C91,15.0193362 88.9806638,13 86.5,13 Z" id="Path"></path>
                <path d="M26,48 C18.8313125,48 13,53.8313125 13,61 C13,68.1686875 18.8313125,74 26,74 C33.1686875,74 39,68.1686875 39,61 C39,53.8313125 33.1686875,48 26,48 Z M26,69.6665313 C21.2202656,69.6665313 17.3332656,65.7797344 17.3332656,60.9997969 C17.3332656,56.2198594 21.2202656,52.3332656 26,52.3332656 C30.7797344,52.3332656 34.6667344,56.2200625 34.6667344,61 C34.6667344,65.7799375 30.7797344,69.6665313 26,69.6665313 Z" id="Shape"></path>
                <path d="M59.5041361,78.1508548 C58.2923687,77.7081223 56.9434241,78.2734005 56.4748272,79.4080831 C55.4254774,81.9567864 54.1131866,84.9288295 52.3434925,87.651655 C51.6690202,88.68958 52.0188766,90.0435658 53.1209024,90.6775439 C53.5028034,90.896847 53.9233335,91 54.3394739,91 C55.128297,91 55.8986835,90.6259674 56.3400644,89.9470146 C58.3018064,86.9254581 59.7168155,83.7277164 60.8416675,80.9984954 C61.3080696,79.8656696 60.7090996,78.591318 59.5041361,78.1508548 Z" id="Path"></path>
                <path d="M46.6425953,93.4883931 C44.5675871,95.2765209 42.2097116,96.6225258 39.4309324,97.6055844 C38.342951,97.990489 37.7482888,99.261751 38.1022128,100.444968 C38.3874099,101.39509 39.1983482,102 40.071995,102 C40.2843882,102 40.5006644,101.96474 40.7130576,101.889997 C43.9224475,100.75513 46.7819905,99.1166992 49.2149997,97.020521 C50.110973,96.2462779 50.2625992,94.829964 49.5528097,93.8555621 C48.8368077,92.8836938 47.536433,92.7099272 46.6425953,93.4883931 Z" id="Path"></path>
                <path d="M66.8258276,63.2748057 C63.3198606,65.230679 61.3719019,68.6261453 60.2100176,71.0082384 C59.7017679,72.048434 60.1476813,73.2965513 61.2058047,73.7940362 C61.5025492,73.9348042 61.8158238,74 62.1227254,74 C62.9151727,74 63.6745599,73.5635995 64.0396155,72.8151206 C65.5145752,69.7906632 67.0208027,67.9694888 68.9251459,66.9048203 C69.9438361,66.3358746 70.3027177,65.0611308 69.7217755,64.0577424 C69.1452148,63.0545497 67.8526832,62.7017486 66.8258276,63.2748057 Z" id="Path"></path>
                <path d="M86.0875136,56.408001 C85.1446415,55.6741831 83.8490682,55.9559906 83.2042013,57.0463174 C82.5209888,58.2066488 81.121863,59.80244 76.8902279,60.2381234 C75.7486207,60.3568852 74.9052134,61.5147563 75.0085712,62.8287399 C75.1058949,64.0682458 76.0121733,65 77.0747537,65 C77.1376248,65 77.2004959,64.9977634 77.263367,64.9906064 C81.7585548,64.5269659 84.8261983,62.8030194 86.6430374,59.7205816 C87.2859579,58.6304784 87.0364199,57.1465157 86.0875136,56.408001 Z" id="Path"></path>
                <path d="M31.1339844,99.7152701 C37.9705625,92.4597725 52,75.7680044 52,60.8749495 C52,46.3665823 40.5784844,35 26,35 C11.4215156,35 0,46.3665823 0,60.8749495 C0,80.131572 23.5117188,102.468931 24.5125156,103.410334 C24.9293281,103.804119 25.4647656,104 26,104 C27.5784844,104 29.0785625,103.945218 30.5004375,103.837877 C31.6937969,103.747315 32.5887656,102.713328 32.4977656,101.525708 C32.4327656,100.675675 31.8800625,100.012832 31.1339844,99.7152701 Z M26,98.802976 C20.8816562,93.6061541 4.33326562,75.6570251 4.33326562,60.8749495 C4.33326562,48.7838686 13.8506875,39.3124242 26,39.3124242 C38.1493125,39.3124242 47.6667344,48.7838686 47.6667344,60.8749495 C47.6667344,75.6570251 31.1183437,93.6059519 26,98.802976 Z" id="Shape"></path>
            </g>
        </g>
    </g>
</svg>