<?xml version="1.0" encoding="UTF-8"?>
<svg width="121px" height="104px" viewBox="0 0 121 104" version="1.1" xmlns="http://www.w3.org/2000/svg" xmlns:xlink="http://www.w3.org/1999/xlink">
    <!-- Generator: Sketch 53.2 (72643) - https://sketchapp.com -->
    <title>graveyard</title>
    <desc>Created with Sketch.</desc>
    <g id="Page-1" stroke="none" stroke-width="1" fill="none" fill-rule="evenodd">
        <g id="Desktop-Copy" transform="translate(-999.000000, -483.000000)">
            <g id="graveyard" transform="translate(999.000000, 483.000000)">
                <path d="M93.2708333,0 C78.6852917,0 66.7188958,11.4044878 65.6475417,25.8148293 C63.9661458,25.5459512 62.2545,25.3658537 60.5,25.3658537 C58.7455,25.3658537 57.0338542,25.5459512 55.3524583,25.8148293 C54.2785833,11.4044878 42.3147083,0 27.7291667,0 C12.4403125,0 0,12.523122 0,27.9125854 L0,63.4146341 C0,64.8173659 1.12933333,65.9512195 2.52083333,65.9512195 L27.7291667,65.9512195 L27.7291667,98.8177561 L12.8536016,98.8177561 C11.046925,99.7212092 10.6755942,99.6295624 10.6755942,101.060526 C10.6755942,102.49149 10.6755942,102.49149 12.8536016,104 L109.542812,104 C110.873812,103.586537 110.873812,101.858816 110.952407,101.060526 C111.031001,100.262237 109.542812,98.8177561 107.814498,98.8177561 C102.931051,98.8177561 98.083163,98.8177561 93.2708333,98.8177561 L93.2708333,65.9512195 L118.479167,65.9512195 C119.870667,65.9512195 121,64.8173659 121,63.4146341 L121,27.9125854 C121,12.523122 108.559687,0 93.2708333,0 Z M88.2291667,58.3541463 L88.2291667,98.9268293 L32.7708333,98.9268293 L32.7708333,58.3541463 C32.7708333,42.9621463 45.2111458,30.4390244 60.5,30.4390244 C75.7888542,30.4390244 88.2291667,42.9621463 88.2291667,58.3541463 Z M5.04166667,60.8780488 L5.04166667,27.9125854 C5.04166667,15.318439 15.2207917,5.07317073 27.7291667,5.07317073 C39.9325208,5.07317073 49.8872917,14.828878 50.3712917,26.996878 C37.2478333,31.304 27.7291667,43.723122 27.7291667,58.3541463 L27.7291667,60.8780488 L5.04166667,60.8780488 Z M115.958333,60.8780488 L93.2708333,60.8780488 L93.2708333,58.3541463 C93.2708333,43.7256585 83.7521667,31.304 70.6287083,26.996878 C71.1127083,14.828878 81.0674792,5.07317073 93.2708333,5.07317073 C105.779208,5.07317073 115.958333,15.318439 115.958333,27.9125854 L115.958333,60.8780488 Z" id="Shape" fill="#C31E26" fill-rule="nonzero"></path>
                <g id="Group-9" transform="translate(53.000000, 48.000000)" stroke="#C31E26" stroke-linecap="round" stroke-width="5">
                    <path d="M7.62870833,0.5 L7.62870833,21.3191914" id="Line-2"></path>
                    <path d="M7.62870833,0.725011242 L7.62870833,14.0891178" id="Line-2-Copy" transform="translate(8.000000, 7.500000) rotate(-90.000000) translate(-8.000000, -7.500000) "></path>
                </g>
            </g>
        </g>
    </g>
</svg>