<?xml version="1.0" encoding="iso-8859-1"?>
<!-- Generator: Adobe Illustrator 19.0.0, SVG Export Plug-In . SVG Version: 6.00 Build 0)  -->
<svg xmlns="http://www.w3.org/2000/svg" xmlns:xlink="http://www.w3.org/1999/xlink" version="1.1" id="Capa_1" x="0px" y="0px" viewBox="0 0 512 512" style="enable-background:new 0 0 512 512;" xml:space="preserve" width="512px" height="512px">
<g>
	<g>
		<path d="M362.667,224H352v106.667h-96V352h106.667c5.891,0,10.667-4.776,10.667-10.667V234.667    C373.333,228.776,368.558,224,362.667,224z" fill="#e52624"/>
	</g>
</g>
<g>
	<g>
		<path d="M256,128v21.333c29.455,0,53.333,23.878,53.333,53.333C309.333,232.122,285.455,256,256,256v21.333    c41.237,0,74.667-33.429,74.667-74.667C330.667,161.429,297.237,128,256,128z" fill="#e52624"/>
	</g>
</g>
<g>
	<g>
		<path d="M490.667,384h-64c-29.441,0.035-53.298,23.893-53.333,53.333v64c0,5.891,4.776,10.667,10.667,10.667    c2.829-0.001,5.541-1.125,7.541-3.125l106.667-106.667c1.999-2,3.122-4.711,3.123-7.539    C501.332,388.778,496.558,384.001,490.667,384z M394.667,475.584v-38.251c0-17.673,14.327-32,32-32h38.251L394.667,475.584z" fill="#e52624"/>
	</g>
</g>
<g>
	<g>
		<path d="M448,42.667H245.333V64H448c17.673,0,32,14.327,32,32v294.251L379.584,490.667H256V512h128    c2.829-0.001,5.541-1.125,7.541-3.125l106.667-106.667c2.001-2,3.125-4.713,3.125-7.541V96    C501.298,66.559,477.441,42.702,448,42.667z" fill="#e52624"/>
	</g>
</g>
<g>
	<g>
		<rect x="21.333" y="309.333" width="42.667" height="21.333" fill="#e52624"/>
	</g>
</g>
<g>
	<g>
		<rect x="21.333" y="437.333" width="42.667" height="21.333" fill="#e52624"/>
	</g>
</g>
<g>
	<g>
		<rect x="21.333" y="53.333" width="42.667" height="21.333" fill="#e52624"/>
	</g>
</g>
<g>
	<g>
		<rect x="21.333" y="181.333" width="42.667" height="21.333" fill="#e52624"/>
	</g>
</g>
<g>
	<g>
		<path d="M117.333,21.333V0H32C20.218,0,10.667,9.551,10.667,21.333v469.333C10.667,502.449,20.218,512,32,512h53.333v-21.333H32    V21.333H117.333z" fill="#e52624"/>
	</g>
</g>
<g>
	<g>
		<rect x="21.333" y="245.333" width="64" height="21.333" fill="#e52624"/>
	</g>
</g>
<g>
	<g>
		<rect x="21.333" y="373.333" width="64" height="21.333" fill="#e52624"/>
	</g>
</g>
<g>
	<g>
		<rect x="21.333" y="117.333" width="64" height="21.333" fill="#e52624"/>
	</g>
</g>
<g>
	<g>
		<rect x="160" y="106.667" width="21.333" height="330.667" fill="#e52624"/>
	</g>
</g>
<g>
	<g>
		<path d="M222.88,91.232L180.213,5.899c-0.945-1.585-2.27-2.91-3.855-3.855c-5.273-3.143-12.095-1.418-15.239,3.855l-42.667,85.333    c-0.738,1.481-1.122,3.113-1.12,4.768v405.333c0,5.891,4.776,10.667,10.667,10.667h85.333c5.891,0,10.667-4.776,10.667-10.667V96    C224.001,94.345,223.618,92.713,222.88,91.232z M202.667,490.667h-64V98.517l32-64l32,64V490.667z" fill="#e52624"/>
	</g>
</g>
<g>
	<g>
		<path d="M184.459,88.459C179.2,93.685,176.672,96,170.667,96c-6.005,0-8.565-2.315-13.792-7.541    c-7.127-8.622-17.689-13.667-28.875-13.792V96c5.995,0,8.533,2.315,13.792,7.541c7.127,8.622,17.689,13.667,28.875,13.792    c11.185-0.125,21.748-5.17,28.875-13.792C204.8,98.315,207.328,96,213.333,96V74.667    C202.148,74.792,191.586,79.837,184.459,88.459z" fill="#e52624"/>
	</g>
</g>
<g>
	<g>
		<rect x="149.333" y="32" width="42.667" height="21.333" fill="#e52624"/>
	</g>
</g>
<g>
	<g>
		<rect x="128" y="426.667" width="85.333" height="21.333" fill="#e52624"/>
	</g>
</g>
<g>
</g>
<g>
</g>
<g>
</g>
<g>
</g>
<g>
</g>
<g>
</g>
<g>
</g>
<g>
</g>
<g>
</g>
<g>
</g>
<g>
</g>
<g>
</g>
<g>
</g>
<g>
</g>
<g>
</g>
</svg>
