<?xml version="1.0" encoding="iso-8859-1"?>
<!-- Generator: Adobe Illustrator 19.0.0, SVG Export Plug-In . SVG Version: 6.00 Build 0)  -->
<svg xmlns="http://www.w3.org/2000/svg" xmlns:xlink="http://www.w3.org/1999/xlink" version="1.1" id="Capa_1" x="0px" y="0px" viewBox="0 0 470 470" style="enable-background:new 0 0 470 470;" xml:space="preserve" width="512px" height="512px">
<g>
	<path d="M256.215,200.416c1.919,0,3.839-0.732,5.303-2.197l64.057-64.057l10.261,10.261l-64.056,64.057   c-2.929,2.929-2.929,7.678,0,10.606c1.467,1.465,3.385,2.197,5.303,2.197c1.919,0,3.839-0.732,5.303-2.197l64.671-64.672   c0.71,0.219,1.454,0.335,2.211,0.335c1.989,0,3.897-0.79,5.303-2.197l19.408-19.408l75.815,75.815   c1.443,1.443,3.363,2.197,5.306,2.197c0.028,0,0.056,0,0.084,0c4.111-0.036,7.434-3.379,7.434-7.5c0-0.799-0.125-1.57-0.357-2.292   c-1.578-6.452-14.89-56.797-56.404-105.746l12.437-12.437c6.921-6.921,6.921-18.183,0-25.104l-6.37-6.37   c-6.921-6.922-18.184-6.922-25.104,0l-12.436,12.436C323.193,20.73,270.479,8.16,268.029,7.595   c-3.26-0.753-6.624,0.746-8.246,3.672c-1.622,2.926-1.109,6.573,1.257,8.939l75.815,75.815l-19.408,19.407   c-2.033,2.033-2.652,4.942-1.863,7.511l-64.673,64.673c-2.929,2.928-2.929,7.677-0.001,10.606   C252.376,199.683,254.295,200.416,256.215,200.416z M401.316,62.314l6.37,6.37c1.073,1.073,1.073,2.819,0,3.892l-11.855,11.855   c-1.649-1.741-3.335-3.475-5.061-5.201c-1.726-1.726-3.46-3.412-5.2-5.062l11.855-11.854   C398.498,61.242,400.243,61.242,401.316,62.314z M380.164,89.836c29.581,29.581,47.252,62.306,57.069,85.35l-57.951-57.951   l-12.397-12.397c-2.929-2.929-7.678-2.929-10.606,0c-2.929,2.929-2.929,7.678,0,10.606l7.094,7.094l-14.104,14.104l-15.911-15.912   l19.408-19.407c1.407-1.406,2.197-3.314,2.197-5.303s-0.79-3.897-2.197-5.303l-57.951-57.951   C317.858,42.584,350.583,60.256,380.164,89.836z" fill="#e52624"/>
	<path d="M208.481,271.78L35.773,444.49L25.51,434.227l172.709-172.709c2.929-2.929,2.929-7.678,0-10.606   c-2.929-2.929-7.678-2.929-10.606,0L9.6,428.924c-2.929,2.929-2.929,7.678,0,10.606l20.87,20.87   c1.406,1.407,3.314,2.197,5.303,2.197s3.897-0.79,5.303-2.197l178.011-178.014c2.928-2.928,2.929-7.675,0.002-10.604   C216.159,268.851,211.41,268.851,208.481,271.78z" fill="#e52624"/>
	<path d="M467.803,407.062l-19.456-19.456c-1.406-1.407-3.314-2.197-5.303-2.197s-3.897,0.79-5.303,2.197l-9.328,9.329   l-167.24-167.236l-16.183-16.183c0.79-2.57,0.172-5.48-1.862-7.514c-0.001,0-20.223-20.224-20.223-20.224l31.309-43.943   c2.125-2.983,1.785-7.065-0.805-9.655L123.425,2.197c-2.207-2.207-5.551-2.817-8.394-1.53   c-24.678,11.16-47.344,26.972-67.369,46.997C27.638,67.688,11.826,90.354,0.667,115.033c-1.286,2.844-0.677,6.187,1.53,8.394   L132.18,253.409c1.452,1.452,3.373,2.197,5.306,2.197c1.516,0,3.039-0.458,4.35-1.392l43.945-31.311l20.223,20.223   c2.033,2.033,4.942,2.652,7.511,1.863l16.184,16.184l167.238,167.239l-9.33,9.33c-2.929,2.929-2.929,7.678,0,10.606l19.456,19.456   c1.464,1.464,3.384,2.197,5.303,2.197s3.839-0.732,5.303-2.197l50.135-50.135C470.733,414.74,470.733,409.991,467.803,407.062z    M412.365,451.894l-8.849-8.849l16.08-16.08c2.929-2.929,2.929-7.678,0-10.606c-2.929-2.929-7.678-2.929-10.606,0l-1.447,1.447   L224.738,234.999l10.261-10.261L423.11,412.845c1.407,1.407,3.314,2.197,5.303,2.197c1.989,0,3.897-0.79,5.303-2.197l9.328-9.328   l8.849,8.849L412.365,451.894z M182.244,207.004l-43.945,31.311L16.521,116.537c1.717-3.552,3.548-7.053,5.474-10.51l95.669,95.669   c1.464,1.464,3.384,2.197,5.303,2.197s3.839-0.732,5.303-2.197c2.929-2.929,2.929-7.678,0-10.606L30.005,92.824   C38.074,80.579,47.517,69.023,58.27,58.27c10.753-10.752,22.309-20.196,34.554-28.265l98.266,98.266   c1.464,1.464,3.384,2.197,5.303,2.197s3.839-0.732,5.303-2.197c2.929-2.929,2.929-7.678,0-10.606l-95.669-95.669   c3.457-1.926,6.959-3.758,10.51-5.474L238.315,138.3l-31.309,43.943c-2.125,2.983-1.785,7.065,0.805,9.655l19.407,19.408   l-15.911,15.911L191.9,207.809C189.309,205.218,185.227,204.879,182.244,207.004z" fill="#e52624"/>
</g>
<g>
</g>
<g>
</g>
<g>
</g>
<g>
</g>
<g>
</g>
<g>
</g>
<g>
</g>
<g>
</g>
<g>
</g>
<g>
</g>
<g>
</g>
<g>
</g>
<g>
</g>
<g>
</g>
<g>
</g>
</svg>
