<svg width="48" height="48" viewBox="0 0 48 48" fill="#19304b"
                                     xmlns="http://www.w3.org/2000/svg">
                                    <path fill-rule="evenodd" clip-rule="evenodd"
                                          d="M31.5137 7.91607C31.5137 3.5512 35.0992 0 39.5062 0C43.9132 0 47.4987 3.5512 47.4987 7.91607C47.4987 11.7067 41.8207 19.3846 40.5025 21.1168L40.5024 21.2033C40.5021 21.7528 40.5018 22.2908 40.4887 22.7858C40.4741 23.323 40.0292 23.7492 39.4906 23.7492H39.4633C38.9112 23.7347 38.476 23.2795 38.4906 22.7336C38.5037 22.2512 38.504 21.7278 38.5043 21.1935L38.5044 21.1094C37.1774 19.3652 31.5137 11.7022 31.5137 7.91607ZM33.5118 7.91608C33.5118 10.4354 37.31 16.1309 39.5062 19.1235C41.7024 16.1308 45.5006 10.4354 45.5006 7.91608C45.5006 4.64216 42.8117 1.97901 39.5062 1.97901C36.2006 1.97901 33.5118 4.64216 33.5118 7.91608Z"
                                          fill="#19304B"/>
                                    <path d="M39.5064 5.9375C38.3734 5.9375 37.4512 6.85976 37.4512 7.99272C37.4512 9.12568 38.3734 10.0479 39.5064 10.0479C40.6394 10.0479 41.5616 9.12578 41.5616 7.99272C41.5616 6.85976 40.6394 5.9375 39.5064 5.9375Z"
                                          fill="#19304B"/>
                                    <path fill-rule="evenodd" clip-rule="evenodd"
                                          d="M5.9375 27.8592C5.9375 24.5851 8.60075 21.9219 11.8748 21.9219C15.1489 21.9219 17.8121 24.5851 17.8121 27.8592C17.8121 31.1332 15.1489 33.7965 11.8748 33.7965C8.60075 33.7965 5.9375 31.1332 5.9375 27.8592ZM7.91655 27.859C7.91655 30.042 9.6918 31.8172 11.8748 31.8172C14.0578 31.8172 15.833 30.0421 15.833 27.8591C15.833 25.676 14.0578 23.9008 11.8748 23.9008C9.6918 23.9008 7.91655 25.6759 7.91655 27.859Z"
                                          fill="#19304B"/>
                                    <path d="M27.1773 35.6929C26.6238 35.4907 26.0077 35.7489 25.7937 36.2671C25.3145 37.4311 24.7151 38.7885 23.9069 40.0321C23.5988 40.5061 23.7586 41.1245 24.2619 41.4141C24.4364 41.5142 24.6284 41.5613 24.8185 41.5613C25.1787 41.5613 25.5306 41.3905 25.7322 41.0804C26.6281 39.7004 27.2744 38.24 27.7881 36.9935C28.0011 36.4761 27.7276 35.8941 27.1773 35.6929Z"
                                          fill="#19304B"/>
                                    <path d="M21.3027 42.6977C20.355 43.5143 19.2781 44.1291 18.009 44.5781C17.5121 44.7538 17.2405 45.3344 17.4022 45.8748C17.5324 46.3088 17.9028 46.5851 18.3018 46.5851C18.3988 46.5851 18.4976 46.5689 18.5946 46.5348C20.0603 46.0165 21.3663 45.2682 22.4775 44.3108C22.8867 43.9572 22.956 43.3104 22.6318 42.8654C22.3048 42.4215 21.7109 42.3421 21.3027 42.6977Z"
                                          fill="#19304B"/>
                                    <path d="M30.5198 28.8989C28.9186 29.7922 28.0289 31.343 27.4983 32.4309C27.2661 32.906 27.4698 33.476 27.9531 33.7032C28.0886 33.7675 28.2317 33.7973 28.3718 33.7973C28.7337 33.7973 29.0806 33.598 29.2473 33.2562C29.9209 31.8748 30.6089 31.0431 31.4786 30.5568C31.9439 30.297 32.1078 29.7148 31.8424 29.2565C31.5791 28.7984 30.9888 28.6372 30.5198 28.8989Z"
                                          fill="#19304B"/>
                                    <path d="M39.3177 25.7625C38.8871 25.4274 38.2954 25.5561 38.0009 26.054C37.6889 26.584 37.0499 27.3128 35.1172 27.5118C34.5958 27.566 34.2106 28.0948 34.2578 28.695C34.3023 29.2611 34.7162 29.6866 35.2015 29.6866C35.2302 29.6866 35.2589 29.6856 35.2876 29.6823C37.3406 29.4706 38.7417 28.6832 39.5715 27.2754C39.8651 26.7776 39.7511 26.0998 39.3177 25.7625Z"
                                          fill="#19304B"/>
                                    <path fill-rule="evenodd" clip-rule="evenodd"
                                          d="M23.7492 27.8028C23.7492 34.6047 17.3418 42.2281 14.2194 45.5418C14.5601 45.6777 14.8126 45.9805 14.8422 46.3687C14.8838 46.9111 14.4751 47.3833 13.93 47.4247C13.2806 47.4737 12.5955 47.4987 11.8746 47.4987C11.6302 47.4987 11.3856 47.4093 11.1953 47.2294C10.7382 46.7995 0 36.5977 0 27.8028C0 21.1766 5.21639 15.9854 11.8746 15.9854C18.5328 15.9854 23.7492 21.1766 23.7492 27.8028ZM1.97908 27.8027C1.97908 34.5539 9.53699 42.7515 11.8746 45.125C14.2122 42.7514 21.7702 34.5539 21.7702 27.8027C21.7702 22.2805 17.4234 17.9547 11.8746 17.9547C6.32584 17.9547 1.97908 22.2805 1.97908 27.8027Z"
                                          fill="#19304B"/>
                                </svg>