<svg width="70" height="70" viewBox="0 0 70 70" fill="#19304b"
                                     xmlns="http://www.w3.org/2000/svg">
                                    <path d="M20.1826 38.1426C19.9729 38.1426 19.7669 38.228 19.6185 38.3766C19.4702 38.5249 19.3848 38.73 19.3848 38.9406C19.3848 39.1506 19.4699 39.3563 19.6185 39.5046C19.7672 39.6533 19.9729 39.7386 20.1826 39.7386C20.3936 39.7386 20.5987 39.6533 20.7471 39.5046C20.8954 39.3563 20.9808 39.1506 20.9808 38.9406C20.9808 38.73 20.8954 38.5249 20.7471 38.3766C20.5987 38.228 20.3927 38.1426 20.1826 38.1426Z"
                                          fill="#19304B"/>
                                    <path d="M21.3799 22.5812C21.8206 22.5812 22.1781 22.218 22.1781 21.7698V20.5998C22.1781 20.1513 21.8206 19.7881 21.3799 19.7881C20.9392 19.7881 20.582 20.1513 20.582 20.5998V21.7698C20.582 22.218 20.9392 22.5812 21.3799 22.5812Z"
                                          fill="#19304B"/>
                                    <path d="M21.3799 27.7687C21.8206 27.7687 22.1781 27.4055 22.1781 26.9573V25.787C22.1781 25.3388 21.8206 24.9756 21.3799 24.9756C20.9392 24.9756 20.582 25.3388 20.582 25.787V26.9573C20.582 27.4055 20.9392 27.7687 21.3799 27.7687Z"
                                          fill="#19304B"/>
                                    <path d="M18.2001 24.1771H19.37C19.8185 24.1771 20.1818 23.8199 20.1818 23.3792C20.1818 22.9382 19.8185 22.5811 19.37 22.5811H18.2001C17.7519 22.5811 17.3887 22.9382 17.3887 23.3792C17.3887 23.8199 17.7519 24.1771 18.2001 24.1771Z"
                                          fill="#19304B"/>
                                    <path d="M23.786 24.1771H24.956C25.4042 24.1771 25.7677 23.8199 25.7677 23.3792C25.7677 22.9382 25.4042 22.5811 24.956 22.5811H23.786C23.3379 22.5811 22.9746 22.9382 22.9746 23.3792C22.9746 23.8199 23.3379 24.1771 23.786 24.1771Z"
                                          fill="#19304B"/>
                                    <path d="M49.7101 47.3203C49.2695 47.3203 48.9121 47.6838 48.9121 48.132V49.3018C48.9121 49.7502 49.2695 50.1134 49.7101 50.1134C50.1508 50.1134 50.5082 49.7502 50.5082 49.3018V48.132C50.5082 47.6838 50.1508 47.3203 49.7101 47.3203V47.3203Z"
                                          fill="#19304B"/>
                                    <path d="M49.7101 52.5078C49.2695 52.5078 48.9121 52.8713 48.9121 53.3195V54.4893C48.9121 54.9377 49.2695 55.3009 49.7101 55.3009C50.1508 55.3009 50.5082 54.9377 50.5082 54.4893V53.3195C50.5082 52.8713 50.1508 52.5078 49.7101 52.5078V52.5078Z"
                                          fill="#19304B"/>
                                    <path d="M47.7002 50.5127H46.5304C46.0823 50.5127 45.7188 50.8701 45.7188 51.3107C45.7188 51.7513 46.0823 52.1088 46.5304 52.1088H47.7002C48.1483 52.1088 48.5119 51.7513 48.5119 51.3107C48.5119 50.8701 48.1483 50.5127 47.7002 50.5127V50.5127Z"
                                          fill="#19304B"/>
                                    <path d="M52.8877 50.5127H51.7179C51.2698 50.5127 50.9062 50.8701 50.9062 51.3107C50.9062 51.7513 51.2698 52.1088 51.7179 52.1088H52.8877C53.3358 52.1088 53.6994 51.7513 53.6994 51.3107C53.6994 50.8701 53.3358 50.5127 52.8877 50.5127V50.5127Z"
                                          fill="#19304B"/>
                                    <path fill-rule="evenodd" clip-rule="evenodd"
                                          d="M34.9453 42.1326C34.9453 40.3725 36.3774 38.9404 38.1376 38.9404C39.8978 38.9404 41.3296 40.3725 41.3296 42.1326C41.3296 43.8926 39.8978 45.3247 38.1376 45.3247C36.3774 45.3247 34.9453 43.8926 34.9453 42.1326ZM36.6273 42.1323C36.6273 42.965 37.3048 43.6424 38.1376 43.6424C38.9704 43.6424 39.6479 42.965 39.6479 42.1323C39.6479 41.2995 38.9704 40.6221 38.1376 40.6221C37.3048 40.6221 36.6273 41.2995 36.6273 42.1323Z"
                                          fill="#19304B"/>
                                    <path fill-rule="evenodd" clip-rule="evenodd"
                                          d="M51.543 44.4411C51.6693 44.1375 51.598 43.7883 51.3627 43.5568L49.6718 41.8959L51.3627 40.2353C51.598 40.0039 51.6693 39.6547 51.543 39.3511C51.4168 39.0471 51.1179 38.8489 50.7861 38.8489H44.7292C44.4319 38.4579 44.0157 38.1812 43.5401 38.0593L52.9594 28.7297L52.9668 28.7227L52.9728 28.717C52.9743 28.7157 52.9755 28.7142 52.9768 28.7127L52.9795 28.7097L53.0463 28.6435C53.0513 28.6386 53.0558 28.6336 53.0603 28.6286L53.0638 28.6247L53.0698 28.618L53.0757 28.6116C55.8125 25.7729 55.4251 20.9089 52.1782 17.6925C48.9632 14.5085 44.1183 14.101 41.2412 16.7234C41.2159 16.7431 41.1917 16.7636 41.1683 16.7867L32.4714 25.4006V25.4009L32.4708 25.4015L27.6771 30.1493C27.6771 30.1496 27.6771 30.1496 27.6768 30.1496L27.6758 30.1506L21.9385 35.8336C21.6189 36.1502 21.6189 36.6634 21.9385 36.9803C22.0983 37.1386 22.3077 37.2178 22.5171 37.2178C22.7267 37.2178 22.9361 37.1383 23.0959 36.9803L25.7704 34.331C25.7381 34.7328 25.7378 35.1444 25.7717 35.5632C25.9369 37.6208 26.8959 39.6132 28.4714 41.1737C29.2718 41.9668 30.178 42.5991 31.1698 43.0582C30.7684 43.654 30.6859 44.4075 30.9749 45.0984C31.2903 45.8531 31.9721 46.3512 32.7681 46.4354L25.7544 53.3826C25.7439 53.393 25.7343 53.4044 25.7244 53.4152L25.7124 53.4257C25.7052 53.4319 25.6979 53.4383 25.6911 53.445C23.4798 55.6352 19.5255 55.2822 16.8766 52.6582C14.2271 50.0342 13.8707 46.1175 16.082 43.9272L18.4643 41.5676C18.7839 41.251 18.7839 40.7378 18.4643 40.4212C18.1446 40.1046 17.6265 40.1046 17.3065 40.4212L14.9242 42.7808C12.0749 45.603 12.4313 50.5484 15.7189 53.8046C17.5165 55.5852 19.8237 56.4977 22.012 56.4977C23.8254 56.4977 25.5575 55.8708 26.8489 54.5917C26.8519 54.5887 26.8548 54.5857 26.8576 54.5826L26.868 54.5709L26.8786 54.5591L26.8909 54.5483L26.9034 54.5373L26.9122 54.529L33.7944 47.7119C33.9178 48.1827 34.1969 48.5952 34.5916 48.8897V54.8893C34.5916 55.2179 34.7917 55.514 35.0986 55.639C35.4048 55.7641 35.758 55.6935 35.9914 55.4601L37.6679 53.7856L39.3444 55.4601C39.5014 55.6169 39.7117 55.7001 39.9259 55.7001C40.0307 55.7001 40.1365 55.6802 40.2375 55.639C40.5441 55.514 40.7445 55.2179 40.7445 54.8893V49.2281C40.7969 49.2107 40.849 49.192 40.9011 49.1705C41.7753 48.8118 42.3091 47.975 42.2609 47.0388C42.2497 46.8204 42.3603 46.6766 42.4274 46.6101C42.4942 46.544 42.6403 46.4341 42.8602 46.4455C43.8038 46.4933 44.6502 45.9643 45.0124 45.0984C45.0338 45.0468 45.053 44.9951 45.0702 44.9432H50.7861C51.1179 44.9432 51.4168 44.745 51.543 44.4411ZM35.0864 35.2666C34.9321 35.3299 34.7892 35.4088 34.6572 35.4999C34.5779 35.4271 34.4996 35.3537 34.4235 35.2783C31.7743 32.6543 31.4179 28.7379 33.6289 26.5477L39.1495 21.0793C38.9564 23.4228 39.8734 25.979 41.8428 27.9296C43.6405 29.7102 45.9473 30.6227 48.1356 30.6227C48.345 30.6227 48.5528 30.6135 48.7593 30.5967L42.251 37.0431C42.1659 36.255 41.6631 35.5794 40.9011 35.2666C40.0266 34.9079 39.0516 35.1257 38.4175 35.8216C38.2695 35.9837 38.0886 36.0081 37.9936 36.0081C37.899 36.0081 37.7181 35.9837 37.5701 35.8216C36.9356 35.1257 35.9607 34.9079 35.0864 35.2666ZM49.9621 22.5331C49.0415 21.8189 48.0301 21.4234 47.2125 21.4234C46.7343 21.4234 46.3226 21.5586 46.0343 21.8445C45.2521 22.6189 45.5868 24.29 46.7298 25.7349L49.9621 22.5331ZM44.0474 23.7898C44.2609 25.0249 44.967 26.3511 46.1161 27.4893C46.7758 28.1431 47.4986 28.6503 48.2302 29.0052C46.4386 29.0334 44.508 28.277 43.0002 26.7833C42.6617 26.448 42.3612 26.0915 42.0982 25.7205L44.0474 23.7898ZM51.0204 18.8394C49.5395 17.3726 47.6507 16.6153 45.8866 16.6153C44.4952 16.6153 43.1815 17.0861 42.2065 18.0517L42.2049 18.053C40.6377 19.6063 40.3625 22.0267 41.2786 24.2391L44.773 20.778C44.8139 20.7375 44.858 20.7023 44.9043 20.6723C46.4866 19.145 49.4765 19.6902 51.7335 21.9257C51.887 22.0777 51.9733 22.2838 51.9733 22.4991C51.9733 22.714 51.887 22.9201 51.7335 23.0721L47.8873 26.8815C49.3244 27.9969 50.9827 28.3347 51.7796 27.6033C51.7851 27.5978 51.7909 27.5926 51.7968 27.5873C51.8027 27.5819 51.8086 27.5765 51.8144 27.5707L51.8157 27.5695C54.026 25.3792 53.6693 21.4631 51.0204 18.8394ZM27.4035 35.4346C27.2727 33.8098 27.781 32.3404 28.8339 31.2969L30.5651 29.5825C30.5328 29.9839 30.5325 30.3955 30.566 30.8144C30.7316 32.872 31.6902 34.8647 33.2658 36.4249C33.4246 36.5826 33.5905 36.7342 33.7599 36.8808C33.7292 37.048 33.7174 37.2215 33.7264 37.3985C33.7376 37.6169 33.627 37.761 33.5598 37.8272C33.493 37.8936 33.3466 38.0022 33.1273 37.9921C32.1825 37.944 31.337 38.473 30.9749 39.3392C30.7246 39.9379 30.7527 40.5838 31.0257 41.1334C30.5277 40.8222 30.06 40.454 29.6288 40.0272C28.3285 38.7393 27.538 37.1081 27.4035 35.4346ZM37.6682 51.8238C37.8862 51.8238 38.0956 51.9099 38.2493 52.0635L39.1076 52.9205V49.1292C38.8525 49.0079 38.6179 48.836 38.4175 48.616C38.2695 48.4535 38.0885 48.4295 37.9936 48.4295C37.899 48.4295 37.7181 48.4535 37.5701 48.616C37.207 49.0142 36.7323 49.2552 36.2285 49.3217V52.9208L37.0868 52.0635C37.2405 51.9102 37.4499 51.8238 37.6682 51.8238ZM43.5001 44.4779C43.4538 44.5887 43.309 44.8442 42.9436 44.8261C42.3203 44.7948 41.7111 45.0269 41.27 45.4638C40.8289 45.9004 40.5942 46.5048 40.6262 47.1215C40.6447 47.4812 40.3865 47.6268 40.2746 47.6727C40.1627 47.7186 39.8763 47.7965 39.6324 47.5293C39.2147 47.0708 38.6176 46.8077 37.9939 46.8077H37.9936C37.3703 46.8077 36.7729 47.0708 36.3551 47.5293C36.1115 47.7965 35.8248 47.7186 35.713 47.6727C35.6011 47.6268 35.3428 47.4812 35.3613 47.1215C35.393 46.5048 35.1584 45.9004 34.7176 45.4638C34.2765 45.0269 33.6656 44.7945 33.0439 44.8261C32.6789 44.8445 32.5338 44.5887 32.4874 44.4779C32.4411 44.3671 32.3624 44.0834 32.6322 43.8418C33.0951 43.428 33.3607 42.8366 33.3607 42.2189C33.3607 41.6012 33.0951 41.0095 32.6322 40.5957C32.3624 40.3541 32.4411 40.0704 32.4874 39.9596C32.5338 39.8488 32.6773 39.593 33.0439 39.6114C33.6679 39.643 34.2768 39.4103 34.7176 38.9737C35.1587 38.5368 35.393 37.9327 35.3613 37.3157C35.3428 36.9563 35.6011 36.8107 35.713 36.7648C35.8248 36.7189 36.1115 36.641 36.3551 36.9082C36.7729 37.3666 37.3703 37.6294 37.9939 37.6294C38.6172 37.6294 39.2147 37.3666 39.6324 36.9082C39.8763 36.641 40.1627 36.7189 40.2746 36.7648C40.3865 36.8107 40.6447 36.9563 40.6262 37.316C40.5942 37.9327 40.8292 38.5371 41.27 38.9737C41.7111 39.4106 42.3219 39.6433 42.9436 39.6114C43.308 39.592 43.4538 39.8488 43.5001 39.9596C43.5465 40.0704 43.6251 40.3541 43.3553 40.5954C42.8925 41.0095 42.6269 41.6009 42.6269 42.2186C42.6269 42.8363 42.8925 43.428 43.3553 43.8418C43.6251 44.0831 43.5465 44.3671 43.5001 44.4779ZM48.7986 43.3215L47.9333 42.4718C47.7783 42.3195 47.691 42.1124 47.691 41.8962C47.691 41.68 47.7783 41.4726 47.9333 41.3203L48.7986 40.4705H45.1648C45.0974 40.9692 44.8545 41.4393 44.4524 41.799C44.2884 41.9456 44.2641 42.1248 44.2641 42.2185C44.2641 42.3125 44.2884 42.4917 44.4524 42.6383C44.6745 42.8368 44.8481 43.0695 44.9705 43.3215H48.7986Z"
                                          fill="#19304B"/>
                                </svg>