<svg width="46" height="42" viewBox="0 0 46 42" fill="#19304b"
                                     xmlns="http://www.w3.org/2000/svg">
                                    <path fill-rule="evenodd" clip-rule="evenodd"
                                          d="M14.3252 0H31.8935C36.8588 0 40.8984 4.06804 40.8984 9.06834C40.8984 11.4734 39.9731 13.7391 38.2929 15.4478C36.8207 16.9451 34.9187 17.8634 32.8646 18.084V21.2483C32.8646 21.6079 32.6496 21.932 32.3197 22.0697C32.2105 22.1152 32.0957 22.1374 31.982 22.1374C31.7522 22.1374 31.5264 22.0471 31.3576 21.877L27.6434 18.1367H18.6636L14.9494 21.8771C14.697 22.1314 14.3172 22.2074 13.9873 22.0698C13.6575 21.9321 13.4424 21.6079 13.4424 21.2484V18.0935C8.88995 17.6452 5.32031 13.7687 5.32031 9.06834C5.32031 4.06804 9.35988 0 14.3252 0ZM31.099 17.2467C31.099 16.7594 31.4885 16.3629 31.9724 16.3577C35.9206 16.3153 39.1327 13.0454 39.1327 9.06854C39.1327 5.04869 35.8852 1.77831 31.8935 1.77831H14.3252C10.3334 1.77831 7.08594 5.04869 7.08594 9.06854C7.08594 13.0884 10.3334 16.3588 14.3252 16.3588C14.8127 16.3588 15.208 16.7568 15.208 17.2478V19.1022L17.6737 16.6192C17.8392 16.4525 18.0638 16.3588 18.2979 16.3588H28.009C28.2432 16.3588 28.4678 16.4525 28.6333 16.6192L31.099 19.1022V17.2467Z"
                                          fill="#19304B"/>
                                    <path fill-rule="evenodd" clip-rule="evenodd"
                                          d="M28.3064 4.75657C28.655 4.42036 29.2201 4.42036 29.5687 4.75657C29.9172 5.09278 29.9172 5.63782 29.5687 5.97394L28.628 6.8811C28.8917 7.50274 29.0381 8.18222 29.0381 8.89433C29.0381 11.837 26.5557 14.231 23.5044 14.231C20.4531 14.231 17.9707 11.837 17.9707 8.89433C17.9707 5.95165 20.4531 3.55762 23.5044 3.55762C25.16 3.55762 26.647 4.26335 27.6619 5.37813L28.3064 4.75657ZM19.7558 8.89456C19.7558 10.888 21.4374 12.5098 23.5044 12.5098C25.5714 12.5098 27.2531 10.888 27.2531 8.89456C27.2531 8.67928 27.2324 8.46865 27.1946 8.26362L24.8828 10.4932C24.7085 10.6613 24.48 10.7453 24.2516 10.7453C24.0232 10.7453 23.7948 10.6613 23.6205 10.4932L22.0586 8.98683C21.7101 8.65062 21.7101 8.10558 22.0586 7.76946C22.4072 7.43333 22.9724 7.43333 23.3209 7.76946L24.2517 8.66714L26.3973 6.59796C25.7092 5.79324 24.6678 5.27936 23.5044 5.27936C21.4374 5.27936 19.7558 6.90112 19.7558 8.89456Z"
                                          fill="#19304B"/>
                                    <path fill-rule="evenodd" clip-rule="evenodd"
                                          d="M13.2295 29.8297C13.8791 29.0547 14.2696 28.0649 14.2696 26.9876V25.4451C14.2696 22.9671 12.2055 20.9512 9.66835 20.9512C7.13119 20.9512 5.06709 22.9671 5.06709 25.4451V26.9876C5.06709 28.0649 5.4576 29.0547 6.10716 29.8297C2.9733 30.3395 0.576172 33.0049 0.576172 36.2081V40.2415C0.576172 40.7223 0.975247 41.1121 1.46756 41.1121H17.8691C18.3615 41.1121 18.7605 40.7223 18.7605 40.2415V36.2081C18.7605 33.0049 16.3634 30.3395 13.2295 29.8297ZM6.84986 25.4446C6.84986 23.9268 8.11421 22.6919 9.66835 22.6919C11.2225 22.6919 12.4868 23.9268 12.4868 25.4446V26.9872C12.4868 28.505 11.2225 29.7399 9.66835 29.7399C8.11421 29.7399 6.84986 28.505 6.84986 26.9872V25.4446ZM2.35893 36.2079V39.3707H16.9777V36.2079C16.9777 33.6017 14.8068 31.4814 12.1383 31.4814H10.5597V33.6782C10.5597 34.159 10.1606 34.5488 9.66833 34.5488C9.17601 34.5488 8.77694 34.159 8.77694 33.6782V31.4814H7.19838C4.52991 31.4814 2.35893 33.6017 2.35893 36.2079Z"
                                          fill="#19304B"/>
                                    <path fill-rule="evenodd" clip-rule="evenodd"
                                          d="M40.1124 29.8297C40.7619 29.0547 41.1524 28.0649 41.1524 26.9876V25.4451C41.1524 22.9671 39.0883 20.9512 36.5512 20.9512C34.014 20.9512 31.9499 22.9671 31.9499 25.4451V26.9876C31.9499 28.0649 32.3404 29.0547 32.99 29.8297C29.8561 30.3395 27.459 33.0049 27.459 36.2081V40.2415C27.459 40.7223 27.8581 41.1121 28.3504 41.1121H44.752C45.2443 41.1121 45.6433 40.7223 45.6433 40.2415V36.2081C45.6433 33.0049 43.2462 30.3395 40.1124 29.8297ZM33.7327 25.4446C33.7327 23.9268 34.997 22.6919 36.5512 22.6919C38.1053 22.6919 39.3697 23.9268 39.3697 25.4446V26.9872C39.3697 28.505 38.1053 29.7399 36.5512 29.7399C34.997 29.7399 33.7327 28.505 33.7327 26.9872V25.4446ZM29.2418 36.2079V39.3707H43.8606V36.2079C43.8606 33.6017 41.6896 31.4814 39.0211 31.4814H37.4425V33.6782C37.4425 34.159 37.0435 34.5488 36.5512 34.5488C36.0588 34.5488 35.6598 34.159 35.6598 33.6782V31.4814H34.0812C31.4127 31.4814 29.2418 33.6017 29.2418 36.2079Z"
                                          fill="#19304B"/>
                                    <path d="M37.1094 36.2046C36.9623 36.0575 36.7583 35.9736 36.5504 35.9736C36.3425 35.9736 36.1385 36.0575 35.9914 36.2046C35.8444 36.3517 35.7598 36.5558 35.7598 36.7639C35.7598 36.9727 35.8444 37.176 35.9914 37.3239C36.1385 37.471 36.3425 37.5549 36.5504 37.5549C36.7583 37.5549 36.9623 37.471 37.1094 37.3239C37.2564 37.176 37.341 36.9727 37.341 36.7639C37.341 36.5558 37.2564 36.3525 37.1094 36.2046Z"
                                          fill="#19304B"/>
                                    <path d="M10.2285 36.2046C10.0814 36.0575 9.87747 35.9736 9.66953 35.9736C9.4616 35.9736 9.25762 36.0575 9.11056 36.2046C8.9635 36.3517 8.87891 36.5558 8.87891 36.7639C8.87891 36.9727 8.9635 37.176 9.11056 37.3239C9.25762 37.471 9.4616 37.5549 9.66953 37.5549C9.87747 37.5549 10.0814 37.471 10.2285 37.3239C10.3756 37.176 10.4602 36.9727 10.4602 36.7639C10.4602 36.5558 10.3756 36.3525 10.2285 36.2046Z"
                                          fill="#19304B"/>
                                </svg>