<?xml version="1.0"?>
<svg width="36" height="39" viewBox="0 0 36 39" fill="#19304b" xmlns="http://www.w3.org/2000/svg">
<path fill-rule="evenodd"
clip-rule="evenodd"
d="M29.426 34.9335C29.9527 35.5195 29.6264 36.456 28.8496 36.5879L19.0522 38.2507C18.6626 38.3168 18.2707 38.1474 18.052 37.8183L0.581266 11.531C0.0576798 10.7431 0.819308 9.73607 1.71992 10.0253L8.93806 12.3439C9.10655 12.398 9.25766 12.4958 9.37596 12.6275L29.426 34.9335ZM1.52653 6.49722C4.43221 4.18388 7.73076 2.3011 11.2278 1.05069C16.7566 -0.927832 24.1852 0.182114 29.6483 1.95711C29.8268 2.01592 29.9753 2.14225 30.0619 2.3091L31.1864 4.47593C31.4903 5.06147 31.1539 5.77565 30.5089 5.91424L10.1167 10.296C9.94542 10.3329 9.76747 10.324 9.60068 10.2704L1.75642 7.74972C1.20764 7.57337 1.07615 6.85697 1.52653 6.49722ZM32.0733 7.79579C32.5141 7.70101 32.9638 7.91294 33.1713 8.31324L35.8294 13.4411C35.9395 13.6535 35.9698 13.8984 35.9148 14.1313L31.7159 31.8966C31.5303 32.6821 30.5386 32.9354 29.999 32.3351L13.0041 13.4273C12.4904 12.8558 12.7864 11.9426 13.5376 11.7811L32.0733 7.79579Z"
/>
</svg>