<svg width="40" height="42" viewBox="0 0 40 42" fill="#19304b"
                                     xmlns="http://www.w3.org/2000/svg">
                                    <path d="M33.652 8.67198H33.4648C32.9657 8.67198 32.4666 8.48482 32.0299 8.11049C31.5932 7.73616 31.3436 7.11227 31.3436 6.55078V5.42779V0H14.2492C13.9997 0 13.8125 0.187165 13.8125 0.436718V1.0606V5.30301V31.319C13.8125 31.5685 13.9997 31.7557 14.2492 31.7557H33.3401H38.955C39.2046 31.7557 39.3917 31.5685 39.3917 31.319V8.0481L33.652 8.67198Z"
                                    ></path>
                                    <path d="M33.652 8.67198H33.4648C32.9657 8.67198 32.4666 8.48482 32.0299 8.11049C31.5932 7.73616 31.3436 7.11227 31.3436 6.55078V5.42779V0H14.2492C13.9997 0 13.8125 0.187165 13.8125 0.436718V1.0606V5.30301V31.319C13.8125 31.5685 13.9997 31.7557 14.2492 31.7557H33.3401H38.955C39.2046 31.7557 39.3917 31.5685 39.3917 31.319V8.0481L33.652 8.67198Z"
                                          stroke="white"></path>
                                    <path d="M32.9668 6.55086C32.9668 6.73802 33.0916 6.8628 33.0916 6.8628C33.154 6.92519 33.2787 6.98757 33.4659 6.98757L38.457 6.48847L32.9668 0.998291V5.36548V6.55086Z"
                                    ></path>
                                    <path d="M32.9668 6.55086C32.9668 6.73802 33.0916 6.8628 33.0916 6.8628C33.154 6.92519 33.2787 6.98757 33.4659 6.98757L38.457 6.48847L32.9668 0.998291V5.36548V6.55086Z"
                                          stroke="white"></path>
                                    <path d="M30.618 36.0134C29.5134 36.0134 28.618 35.118 28.618 34.0134V15.817C28.618 10.2658 23.5852 5.76562 17.5289 5.76562C11.4731 5.76562 6.4399 10.2658 6.4399 15.817V34.0134C6.4399 35.118 5.54447 36.0134 4.4399 36.0134H3C1.89543 36.0134 1 36.9088 1 38.0134V39C1 40.1046 1.89543 41 3 41H32.0579C33.1624 41 34.0578 40.1046 34.0578 39V38.0134C34.0578 36.9088 33.1624 36.0134 32.0578 36.0134H30.618Z"
                                          stroke="white"></path>
                                    <rect x="2.92188" y="35.1274" width="29.4687" height="1.76172" fill="white"></rect>
                                </svg>