<svg width="29" height="35" viewBox="0 0 29 35" fill="#19304b"
                                     xmlns="http://www.w3.org/2000/svg">
                                    <path d="M22.0754 9.55796C22.0066 9.55796 21.9379 9.55796 21.8691 9.55796C21.319 9.55796 20.7689 9.35167 20.2876 8.9391C19.8062 8.52652 19.5312 7.8389 19.5312 7.22004V5.98232V0H0.690321C0.415272 0 0.208984 0.206287 0.208984 0.481336V1.16896V5.84479V34.5187C0.208984 34.7937 0.415272 35 0.690321 35H21.7316H27.9202C28.1952 35 28.4015 34.7937 28.4015 34.5187V8.87033L22.0754 9.55796Z"
                                    />
                                    <path d="M21.3184 7.22019C21.3184 7.42647 21.4559 7.564 21.4559 7.564C21.5246 7.63276 21.6622 7.70152 21.8685 7.70152L27.3694 7.15142L21.3184 1.10034V5.9137V7.22019Z"
                                    />
                                </svg>